<svg width="500" height="500" viewBox="0 0 500 500" fill="none" xmlns="http://www.w3.org/2000/svg">
<g filter="url(#filter0_d_66_239)">
<path d="M53.54 257.67H171.92V250H53.54V257.67Z" fill="#EBEBEB"/>
<path d="M55.88 382.4H162.5L162.5 257.67H55.88L55.88 382.4Z" fill="#EBEBEB"/>
<path d="M165.14 257.67H162.5V382.4H165.14V257.67Z" fill="#F0F0F0"/>
<path d="M162.5 257.67H55.87V263L162.5 260.33V257.67Z" fill="#E6E6E6"/>
<path d="M261.21 382.4H367.83V257.67H261.21V382.4Z" fill="#EBEBEB"/>
<path d="M370.47 257.67H367.83V382.4H370.47V257.67Z" fill="#F0F0F0"/>
<path d="M367.83 257.67H261.21V263L367.83 260.33V257.67Z" fill="#E6E6E6"/>
<path d="M379.03 250H171.92V257.67H379.03V250Z" fill="#F5F5F5"/>
<path d="M145.22 231.66H250.34C251.375 231.683 252.403 231.479 253.35 231.061C254.298 230.643 255.141 230.021 255.822 229.241C256.502 228.46 257.002 227.539 257.287 226.544C257.572 225.548 257.635 224.502 257.47 223.48L249.35 159.85C249.018 157.621 247.912 155.58 246.226 154.085C244.541 152.589 242.383 151.735 240.13 151.67H135C133.964 151.647 132.936 151.852 131.989 152.27C131.041 152.688 130.197 153.309 129.516 154.089C128.835 154.869 128.333 155.79 128.047 156.785C127.761 157.781 127.697 158.827 127.86 159.85L136 223.48C136.334 225.708 137.441 227.748 139.126 229.243C140.811 230.738 142.968 231.594 145.22 231.66Z" fill="#E0E0E0"/>
<path d="M180.71 198.33H204.16L196.22 250H172.77L180.71 198.33Z" fill="#E0E0E0"/>
<path d="M146.64 231.66H251.75C252.786 231.685 253.815 231.481 254.763 231.064C255.712 230.647 256.557 230.025 257.239 229.245C257.92 228.464 258.421 227.543 258.707 226.546C258.992 225.55 259.055 224.503 258.89 223.48L250.77 159.85C250.435 157.62 249.328 155.579 247.64 154.084C245.953 152.589 243.794 151.734 241.54 151.67H136.42C135.385 151.647 134.357 151.851 133.41 152.269C132.462 152.687 131.619 153.309 130.938 154.089C130.258 154.87 129.758 155.791 129.473 156.786C129.188 157.782 129.125 158.828 129.29 159.85L137.41 223.48C137.745 225.71 138.852 227.751 140.54 229.246C142.227 230.741 144.386 231.596 146.64 231.66Z" fill="#E6E6E6"/>
<path d="M187.79 151.67H203.12L230.71 214.27H215.37L187.79 151.67Z" fill="#F5F5F5"/>
<path d="M177.33 151.67H183.47L211.05 214.27H204.91L177.33 151.67Z" fill="#F5F5F5"/>
<path d="M257.71 214.27L258.89 223.48C259.053 224.503 258.989 225.549 258.703 226.545C258.417 227.54 257.915 228.461 257.234 229.241C256.553 230.021 255.709 230.642 254.761 231.06C253.814 231.478 252.786 231.683 251.75 231.66H146.64C144.386 231.596 142.227 230.741 140.54 229.246C138.852 227.751 137.745 225.71 137.41 223.48L136.24 214.27H257.71Z" fill="#F0F0F0"/>
<path d="M105.14 233.07C104.024 229.125 103.802 224.981 104.49 220.94C105.099 216.858 106.38 212.904 108.28 209.24C108.72 208.31 109.28 207.46 109.81 206.56L110.62 205.25C110.91 204.82 111.22 204.41 111.53 204C112.16 203.19 112.77 202.37 113.41 201.57C114.05 200.77 114.82 200.08 115.53 199.35L116.61 198.26C116.98 197.92 117.38 197.6 117.78 197.26C118.56 196.61 119.36 195.98 120.16 195.36C121.823 194.213 123.56 193.177 125.36 192.26C124.17 193.93 122.81 195.35 121.6 196.89C121.01 197.68 120.42 198.45 119.81 199.2C119.52 199.59 119.2 199.94 118.91 200.33L118.09 201.52C117.54 202.3 116.98 203.08 116.41 203.84C115.84 204.6 115.41 205.46 114.9 206.26C114.65 206.66 114.37 207.05 114.13 207.45L113.45 208.7C113 209.53 112.45 210.32 112.09 211.18C110.349 214.545 108.904 218.055 107.77 221.67C106.566 225.387 105.686 229.201 105.14 233.07Z" fill="#E6E6E6"/>
<path d="M84.11 230.15C83.599 226.283 82.7627 222.466 81.61 218.74C80.5136 215.113 79.1084 211.587 77.41 208.2C77.03 207.34 76.51 206.54 76.08 205.71L75.41 204.45C75.18 204.04 74.9 203.66 74.66 203.25C74.16 202.44 73.66 201.64 73.17 200.82C72.68 200 72.06 199.27 71.52 198.47L70.71 197.28C70.43 196.88 70.11 196.52 69.82 196.14C69.23 195.38 68.64 194.6 68.06 193.81C66.87 192.25 65.53 190.81 64.35 189.13C66.1434 190.068 67.8708 191.127 69.52 192.3C70.31 192.92 71.1 193.56 71.88 194.22C72.27 194.54 72.67 194.86 73.04 195.22L74.1 196.31C74.8133 197.05 75.5133 197.8 76.2 198.56C76.83 199.36 77.43 200.19 78.05 201.01C78.35 201.43 78.66 201.84 78.94 202.27L79.74 203.59C80.24 204.49 80.81 205.35 81.24 206.29C83.0918 209.966 84.325 213.923 84.89 218C85.5397 222.057 85.2732 226.209 84.11 230.15Z" fill="#E6E6E6"/>
<path d="M84.43 232C84.54 227.48 84.43 223.11 84.14 218.78C83.8273 214.48 83.2024 210.209 82.27 206C81.89 203.89 81.21 201.87 80.67 199.79C80.33 198.79 79.96 197.79 79.67 196.79C79.3339 195.771 78.9467 194.77 78.51 193.79C77 189.72 74.8 185.98 72.71 181.94C76.2651 184.818 79.2557 188.331 81.53 192.3L82.41 193.78C82.7 194.28 82.9 194.78 83.15 195.34C83.64 196.34 84.15 197.44 84.55 198.5C85.3251 200.624 85.963 202.795 86.46 205C87.44 209.49 87.7767 214.096 87.46 218.68C87.2266 223.262 86.2015 227.768 84.43 232Z" fill="#E6E6E6"/>
<path d="M103.42 234.66C101.081 230.523 99.2256 226.131 97.89 221.57C96.5209 217.027 95.5177 212.383 94.89 207.68C94.54 205.34 94.37 202.97 94.18 200.6C93.99 198.23 93.97 195.86 94.1 193.48C94.2021 188.727 94.8395 184 96 179.39C96.63 184.13 96.9 188.75 97.48 193.39C97.68 195.69 98.01 197.98 98.24 200.27L98.69 203.7C98.81 204.85 98.97 205.99 99.14 207.13C99.76 211.697 100.447 216.263 101.2 220.83L103.42 234.66Z" fill="#E6E6E6"/>
<path d="M102.48 233.75C99.6789 229.906 97.3301 225.752 95.48 221.37C93.586 217.023 92.0508 212.528 90.89 207.93C90.26 205.64 89.82 203.3 89.37 200.93C88.92 198.56 88.62 196.25 88.48 193.87C88.0348 189.138 88.1254 184.371 88.75 179.66C89.91 184.29 90.75 188.85 91.75 193.36C92.22 195.62 92.81 197.86 93.3 200.11L94.14 203.47C94.39 204.59 94.68 205.71 94.98 206.82C96.11 211.29 97.33 215.74 98.59 220.2L102.48 233.75Z" fill="#E6E6E6"/>
<path d="M100.63 232.74C97.4829 229.179 94.7582 225.267 92.51 221.08C90.2077 216.914 88.2511 212.566 86.66 208.08C85.82 205.86 85.17 203.57 84.5 201.3C83.83 199.03 83.31 196.7 82.94 194.35C82.0493 189.679 81.6904 184.922 81.87 180.17C83.46 184.67 84.69 189.17 86.2 193.53C86.88 195.74 87.68 197.91 88.38 200.1L89.53 203.37C89.88 204.46 90.28 205.54 90.69 206.62C92.23 210.97 93.86 215.29 95.55 219.62L100.63 232.74Z" fill="#E6E6E6"/>
<path d="M105.79 231.54C103.963 227.87 102.975 223.839 102.9 219.74C102.744 215.616 103.267 211.494 104.45 207.54C104.71 206.54 105.13 205.59 105.45 204.62L106 203.18C106.21 202.71 106.44 202.25 106.67 201.79C107.13 200.87 107.58 199.95 108.06 199.05C108.54 198.15 109.17 197.32 109.73 196.47L110.59 195.2C110.89 194.79 111.23 194.41 111.59 194.02C112.25 193.24 112.91 192.47 113.59 191.71C115.008 190.272 116.525 188.935 118.13 187.71C117.26 189.57 116.19 191.22 115.29 192.96C114.85 193.84 114.41 194.71 113.96 195.56C113.74 195.99 113.49 196.4 113.28 196.84L112.7 198.16C112.3 199.03 111.9 199.9 111.48 200.75C111.06 201.6 110.79 202.53 110.48 203.41C110.31 203.85 110.1 204.28 109.95 204.72L109.51 206.07C109.22 206.97 108.85 207.85 108.63 208.76C107.547 212.391 106.777 216.108 106.33 219.87C105.817 223.737 105.636 227.642 105.79 231.54Z" fill="#E6E6E6"/>
<path d="M105.79 233.36C103.303 229.537 101.499 225.311 100.46 220.87C99.3619 216.407 98.9039 211.811 99.1 207.22C99.1977 204.919 99.4517 202.627 99.86 200.36C100.12 199.23 100.39 198.11 100.69 197C100.85 196.45 100.95 195.88 101.15 195.34L101.76 193.72C103.308 189.423 105.637 185.45 108.63 182C107.169 186.144 105.957 190.371 105 194.66C104.737 195.704 104.533 196.763 104.39 197.83C104.24 198.89 104.04 199.94 103.88 201C103.72 203.14 103.4 205.25 103.39 207.4C103.212 211.7 103.339 216.008 103.77 220.29C104.2 224.61 104.89 228.93 105.79 233.36Z" fill="#E6E6E6"/>
<path d="M98.95 227.64L86.88 207.07L85.39 227.11L98.95 227.64Z" fill="#E6E6E6"/>
<path d="M118.81 222.1H72.44L78.51 250H112.74L118.81 222.1Z" fill="#F5F5F5"/>
<path d="M89.84 222.1H72.44L78.51 250H87.65L89.84 222.1Z" fill="#EBEBEB"/>
<path d="M416.73 285.78H343C339.06 250.94 346.3 213.49 364.36 178.5C364.835 177.582 365.552 176.812 366.433 176.272C367.314 175.733 368.327 175.445 369.36 175.44H431.73C432.582 175.438 433.419 175.659 434.158 176.082C434.898 176.504 435.514 177.112 435.946 177.846C436.378 178.58 436.61 179.414 436.619 180.266C436.629 181.117 436.415 181.957 436 182.7C419.47 216.47 412.94 252.33 416.73 285.78Z" fill="#E0E0E0"/>
<path d="M399.24 276.61H318C315.57 276.615 313.24 277.583 311.522 279.302C309.803 281.02 308.835 283.35 308.83 285.78H408.43C408.425 283.346 407.454 281.014 405.731 279.295C404.008 277.575 401.674 276.61 399.24 276.61Z" fill="#E0E0E0"/>
<path d="M363.13 382.4H358.61L347.44 285.78H351.96L363.13 382.4Z" fill="#E0E0E0"/>
<path d="M427.9 382.4H423.38L412.21 285.78H416.73L427.9 382.4Z" fill="#E0E0E0"/>
<path d="M369.15 382.4H373.68L384.85 285.78H380.32L369.15 382.4Z" fill="#E0E0E0"/>
<path d="M304.39 382.4H308.91L320.08 285.78H315.56L304.39 382.4Z" fill="#E0E0E0"/>
<path d="M424.78 68.33H84.26V131H424.78V68.33Z" fill="#F5F5F5"/>
<path d="M81.69 131H84.26L84.26 68.33H81.69L81.69 131Z" fill="#EBEBEB"/>
<path d="M404.56 105.67C304.78 122.47 205 88.87 105.22 105.67V93.67C205 76.87 304.78 110.47 404.56 93.67V105.67Z" fill="#EBEBEB"/>
<path d="M378 99.88H407.13C412.93 99.88 417.64 106.67 414.27 113.46H298.77C302.77 105.46 295.62 99.88 291.62 99.88H378Z" fill="#407BFF"/>
<path d="M286.24 99.88H404.74C388.51 99.88 374.04 113.03 372.4 129.25L351.4 337.42C349.76 353.64 335.29 366.79 319.06 366.79H259.33C243.11 366.79 231.33 353.64 232.92 337.42L253.92 129.25C255.54 113 270 99.88 286.24 99.88Z" fill="#407BFF"/>
<path opacity="0.7" d="M286.24 99.88H404.74C388.51 99.88 374.04 113.03 372.4 129.25L351.4 337.42C349.76 353.64 335.29 366.79 319.06 366.79H259.33C243.11 366.79 231.33 353.64 232.92 337.42L253.92 129.25C255.54 113 270 99.88 286.24 99.88Z" fill="white"/>
<path d="M292.67 337.42C292.826 336.205 292.717 334.97 292.352 333.8C291.987 332.631 291.374 331.553 290.555 330.642C289.736 329.731 288.73 329.007 287.606 328.52C286.481 328.033 285.265 327.794 284.04 327.82H165.54C166.766 327.793 167.983 328.031 169.109 328.517C170.234 329.003 171.242 329.727 172.062 330.638C172.882 331.55 173.496 332.627 173.862 333.798C174.227 334.968 174.336 336.204 174.18 337.42C172.54 353.64 184.37 366.79 200.59 366.79H319.08C302.86 366.79 291 353.64 292.67 337.42Z" fill="#407BFF"/>
<path d="M171.79 327.81H142.66C140.099 327.82 137.644 328.831 135.819 330.626C133.993 332.422 132.942 334.86 132.89 337.42H274.27C274.322 334.86 275.373 332.422 277.199 330.626C279.024 328.831 281.479 327.82 284.04 327.81H171.79Z" fill="#407BFF"/>
<path opacity="0.6" d="M171.79 327.81H142.66C140.099 327.82 137.644 328.831 135.819 330.626C133.993 332.422 132.942 334.86 132.89 337.42H274.27C274.322 334.86 275.373 332.422 277.199 330.626C279.024 328.831 281.479 327.82 284.04 327.81H171.79Z" fill="white"/>
<g opacity="0.5">
<path d="M273.07 201.93H264.13L265.04 193H273.97L273.07 201.93Z" fill="white"/>
<path d="M287.82 201.93H278.89L279.79 193H288.72L287.82 201.93Z" fill="white"/>
<path d="M302.58 201.93H293.64L294.54 193H303.48L302.58 201.93Z" fill="white"/>
<path d="M317.33 201.93H308.39L309.3 193H318.23L317.33 201.93Z" fill="white"/>
<path d="M332.08 201.93H323.15L324.05 193H332.98L332.08 201.93Z" fill="white"/>
<path d="M346.84 201.93H337.9L338.8 193H347.74L346.84 201.93Z" fill="white"/>
<path d="M271.58 216.69H262.65L263.55 207.75H272.48L271.58 216.69Z" fill="white"/>
<path d="M286.34 216.69H277.4L278.3 207.75H287.24L286.34 216.69Z" fill="white"/>
<path d="M301.09 216.69H292.15L293.06 207.75H301.99L301.09 216.69Z" fill="white"/>
<path d="M315.84 216.69H306.91L307.81 207.75H316.74L315.84 216.69Z" fill="white"/>
<path d="M330.6 216.69H321.66L322.56 207.75H331.5L330.6 216.69Z" fill="white"/>
<path d="M345.35 216.69H336.41L337.31 207.75H346.25L345.35 216.69Z" fill="white"/>
<path d="M270.1 231.44H261.16L262.06 222.5H271L270.1 231.44Z" fill="white"/>
<path d="M284.85 231.44H275.91L276.81 222.5H285.75L284.85 231.44Z" fill="white"/>
<path d="M299.6 231.44H290.67L291.57 222.5H300.5L299.6 231.44Z" fill="white"/>
<path d="M314.36 231.44H305.42L306.32 222.5H315.26L314.36 231.44Z" fill="white"/>
<path d="M329.11 231.44H320.17L321.07 222.5H330.01L329.11 231.44Z" fill="white"/>
<path d="M343.86 231.44H334.93L335.83 222.5H344.76L343.86 231.44Z" fill="white"/>
<path d="M268.61 246.19H259.67L260.57 237.26H269.51L268.61 246.19Z" fill="white"/>
<path d="M283.36 246.19H274.43L275.33 237.26H284.26L283.36 246.19Z" fill="white"/>
<path d="M298.11 246.19H289.18L290.08 237.26H299.01L298.11 246.19Z" fill="white"/>
<path d="M312.87 246.19H303.93L304.83 237.26H313.77L312.87 246.19Z" fill="white"/>
<path d="M327.62 246.19H318.69L319.59 237.26H328.52L327.62 246.19Z" fill="white"/>
<path d="M342.37 246.19H333.44L334.34 237.26H343.27L342.37 246.19Z" fill="white"/>
<path d="M267.12 260.95H258.19L259.09 252.01H268.02L267.12 260.95Z" fill="white"/>
<path d="M281.87 260.95H272.94L273.84 252.01H282.77L281.87 260.95Z" fill="white"/>
<path d="M296.63 260.95H287.69L288.59 252.01H297.53L296.63 260.95Z" fill="white"/>
<path d="M311.38 260.95H302.44L303.35 252.01H312.28L311.38 260.95Z" fill="white"/>
<path d="M326.13 260.95H317.2L318.1 252.01H327.03L326.13 260.95Z" fill="white"/>
<path d="M340.89 260.95H331.95L332.85 252.01H341.79L340.89 260.95Z" fill="white"/>
<path d="M265.63 275.7H256.7L257.6 266.76H266.53L265.63 275.7Z" fill="white"/>
<path d="M280.39 275.7H271.45L272.35 266.76H281.29L280.39 275.7Z" fill="white"/>
<path d="M295.14 275.7H286.2L287.11 266.76H296.04L295.14 275.7Z" fill="white"/>
<path d="M309.89 275.7H300.96L301.86 266.76H310.79L309.89 275.7Z" fill="white"/>
<path d="M324.65 275.7H315.71L316.61 266.76H325.55L324.65 275.7Z" fill="white"/>
<path d="M339.4 275.7H330.46L331.37 266.76H340.3L339.4 275.7Z" fill="white"/>
</g>
<path d="M270.26 266.76C270.142 267.772 269.662 268.707 268.908 269.393C268.155 270.078 267.179 270.468 266.16 270.49C265.684 270.5 265.212 270.407 264.776 270.217C264.339 270.028 263.949 269.746 263.631 269.392C263.313 269.038 263.075 268.62 262.933 268.166C262.792 267.711 262.75 267.232 262.81 266.76C262.926 265.748 263.406 264.813 264.16 264.129C264.915 263.445 265.892 263.058 266.91 263.04C267.385 263.029 267.857 263.121 268.294 263.309C268.73 263.497 269.121 263.778 269.439 264.131C269.757 264.484 269.995 264.902 270.137 265.356C270.279 265.809 270.321 266.289 270.26 266.76Z" fill="#407BFF"/>
<path d="M289.48 222.5C289.36 223.513 288.877 224.448 288.122 225.133C287.367 225.819 286.39 226.208 285.37 226.23C284.893 226.243 284.418 226.152 283.979 225.964C283.54 225.775 283.147 225.495 282.827 225.14C282.507 224.786 282.267 224.366 282.124 223.911C281.982 223.455 281.939 222.974 282 222.5C282.123 221.489 282.606 220.556 283.361 219.873C284.116 219.19 285.092 218.802 286.11 218.78C286.586 218.769 287.059 218.861 287.496 219.049C287.933 219.237 288.325 219.517 288.645 219.87C288.964 220.223 289.204 220.64 289.349 221.094C289.493 221.548 289.537 222.027 289.48 222.5Z" fill="#407BFF"/>
<path d="M317.5 237.26C317.38 238.273 316.898 239.208 316.142 239.893C315.387 240.579 314.41 240.968 313.39 240.99C312.914 241 312.442 240.907 312.006 240.717C311.569 240.528 311.179 240.246 310.861 239.892C310.543 239.538 310.305 239.12 310.163 238.666C310.022 238.211 309.98 237.732 310.04 237.26C310.16 236.249 310.641 235.315 311.394 234.63C312.147 233.945 313.122 233.554 314.14 233.53C314.616 233.521 315.089 233.614 315.526 233.803C315.962 233.992 316.354 234.273 316.672 234.627C316.991 234.981 317.23 235.399 317.373 235.854C317.515 236.308 317.559 236.787 317.5 237.26Z" fill="#407BFF"/>
<path d="M350 207.75C349.88 208.763 349.398 209.698 348.642 210.383C347.887 211.069 346.91 211.458 345.89 211.48C345.414 211.49 344.942 211.397 344.506 211.207C344.069 211.018 343.679 210.736 343.361 210.382C343.043 210.028 342.805 209.61 342.663 209.156C342.522 208.701 342.48 208.222 342.54 207.75C342.66 206.737 343.142 205.802 343.898 205.117C344.653 204.431 345.63 204.042 346.65 204.02C347.126 204.01 347.598 204.103 348.034 204.293C348.471 204.482 348.861 204.764 349.179 205.118C349.497 205.472 349.735 205.89 349.877 206.344C350.018 206.799 350.06 207.278 350 207.75Z" fill="#407BFF"/>
<path d="M266.53 267.86C266.348 267.86 266.17 267.816 266.01 267.729C265.85 267.643 265.714 267.518 265.615 267.366C265.515 267.214 265.456 267.04 265.441 266.859C265.426 266.678 265.457 266.496 265.53 266.33L284.75 222.07C284.809 221.931 284.896 221.805 285.006 221.702C285.117 221.599 285.247 221.52 285.39 221.47C285.532 221.422 285.683 221.403 285.832 221.415C285.982 221.427 286.127 221.47 286.26 221.54L313.6 235.93L345.51 206.93C345.726 206.736 346.011 206.635 346.302 206.65C346.592 206.665 346.865 206.794 347.06 207.01C347.156 207.116 347.23 207.241 347.278 207.376C347.326 207.51 347.347 207.654 347.339 207.797C347.332 207.94 347.296 208.08 347.235 208.209C347.173 208.338 347.086 208.454 346.98 208.55L314.5 238.07C314.335 238.222 314.127 238.318 313.904 238.345C313.682 238.372 313.456 238.328 313.26 238.22L286.26 224.02L267.54 267.2C267.454 267.396 267.313 267.564 267.134 267.681C266.954 267.798 266.744 267.86 266.53 267.86Z" fill="#407BFF"/>
<path opacity="0.5" d="M262.44 307.34H253.51L253.96 302.87H262.89L262.44 307.34Z" fill="#407BFF"/>
<path opacity="0.6" d="M277.2 307.34H268.26L269.81 291.95H278.75L277.2 307.34Z" fill="#407BFF"/>
<path opacity="0.7" d="M291.95 307.34H283.01L283.92 298.4H292.85L291.95 307.34Z" fill="#407BFF"/>
<path opacity="0.8" d="M306.7 307.34H297.77L298.95 295.59H307.89L306.7 307.34Z" fill="#407BFF"/>
<path opacity="0.9" d="M321.46 307.34H312.52L313.24 300.21H322.18L321.46 307.34Z" fill="#407BFF"/>
<path d="M336.21 307.34H327.27L327.73 302.87H336.66L336.21 307.34Z" fill="#407BFF"/>
<path opacity="0.5" d="M346.74 177.41H269.18C268.852 177.417 268.526 177.353 268.225 177.223C267.924 177.092 267.655 176.899 267.436 176.655C267.216 176.411 267.052 176.122 266.955 175.809C266.857 175.496 266.828 175.165 266.87 174.84L270.4 139.74C270.482 139.042 270.814 138.398 271.334 137.925C271.854 137.453 272.528 137.185 273.23 137.17H350.8C351.127 137.165 351.452 137.23 351.753 137.361C352.053 137.492 352.321 137.685 352.54 137.929C352.759 138.172 352.923 138.46 353.022 138.773C353.12 139.085 353.15 139.415 353.11 139.74L349.57 174.84C349.488 175.538 349.156 176.183 348.636 176.655C348.116 177.127 347.442 177.395 346.74 177.41Z" fill="white"/>
<path d="M293.55 157.29L299.97 143.49C302.699 144.526 305 146.451 306.502 148.955C308.004 151.458 308.62 154.394 308.25 157.29C307.818 160.835 306.266 164.15 303.82 166.753C301.374 169.355 298.162 171.109 294.65 171.76L293.55 157.29Z" fill="#407BFF"/>
<path d="M293.55 157.29L294.65 171.76C293.798 171.908 292.935 171.981 292.07 171.98C290.198 172.01 288.342 171.638 286.626 170.889C284.91 170.141 283.374 169.033 282.122 167.641C280.87 166.249 279.931 164.605 279.369 162.819C278.806 161.034 278.633 159.148 278.86 157.29C279.345 153.314 281.241 149.645 284.203 146.949C287.165 144.253 290.996 142.71 295 142.6C296.684 142.595 298.354 142.896 299.93 143.49L293.55 157.29Z" fill="white"/>
<path d="M328.47 153.72H334.04L332.2 171.96H326.63L328.47 153.72Z" fill="white"/>
<path d="M336.96 163.42H342.53L341.67 171.96H336.1L336.96 163.42Z" fill="white"/>
<path d="M336.96 163.42H342.53L343.06 158.21H337.49L336.96 163.42Z" fill="#407BFF"/>
<path d="M328.47 153.72H334.04L335.16 142.6H329.59L328.47 153.72Z" fill="#407BFF"/>
<path d="M318.67 157.04H324.24L322.74 171.96H317.17L318.67 157.04Z" fill="white"/>
<path d="M318.67 157.04H324.24L324.93 150.2H319.36L318.67 157.04Z" fill="#407BFF"/>
<path d="M134.3 159.55C133.86 160.28 133.3 161.2 132.87 162.04C132.44 162.88 131.87 163.79 131.46 164.67C130.56 166.45 129.65 168.22 128.82 170.04C127.149 173.611 125.706 177.286 124.5 181.04L124.08 182.44L123.88 183.15L123.82 183.32C123.756 183.766 123.808 184.22 123.97 184.64C124.544 186.309 125.309 187.907 126.25 189.4C128.374 192.808 130.684 196.096 133.17 199.25L130 202.6C126.461 199.983 123.239 196.963 120.4 193.6C118.804 191.76 117.478 189.703 116.46 187.49C115.769 185.99 115.427 184.352 115.46 182.7C115.476 182.432 115.506 182.165 115.55 181.9L115.62 181.48V181.28L115.79 180.46L116.14 178.82C117.176 174.53 118.564 170.332 120.29 166.27C121.15 164.27 122.06 162.27 123.08 160.33C123.58 159.33 124.08 158.39 124.64 157.43C125.2 156.47 125.73 155.56 126.4 154.52L134.3 159.55Z" fill="#FF8B7B"/>
<path d="M130.88 197.45L138.4 197.76L135.4 204.21C135.4 204.21 130.05 203.91 128.04 200.67L130.88 197.45Z" fill="#FF8B7B"/>
<path d="M140.26 200.66L138.4 206.44L135.37 204.22L138.4 197.76L140.26 200.66Z" fill="#FF8B7B"/>
<path d="M146.5 407.46C145.684 407.438 144.872 407.327 144.08 407.13C144.039 407.12 144.001 407.099 143.971 407.069C143.941 407.039 143.92 407.001 143.91 406.96C143.902 406.919 143.907 406.876 143.923 406.837C143.939 406.798 143.966 406.764 144 406.74C144.31 406.53 147.07 404.74 148.14 405.22C148.26 405.275 148.364 405.36 148.441 405.467C148.518 405.574 148.566 405.699 148.58 405.83C148.628 406.035 148.622 406.248 148.562 406.45C148.503 406.652 148.392 406.834 148.24 406.98C147.736 407.343 147.119 407.514 146.5 407.46ZM144.69 406.82C146.29 407.14 147.48 407.08 147.94 406.66C148.041 406.562 148.114 406.439 148.151 406.304C148.188 406.168 148.188 406.025 148.15 405.89C148.147 405.832 148.128 405.776 148.097 405.726C148.065 405.677 148.021 405.637 147.97 405.61C147.4 405.36 145.81 406.13 144.69 406.82Z" fill="#407BFF"/>
<path d="M144.13 407.13C144.094 407.14 144.056 407.14 144.02 407.13C143.987 407.11 143.96 407.082 143.941 407.049C143.922 407.016 143.911 406.978 143.91 406.94C143.91 406.83 143.91 404.19 144.91 403.31C145.031 403.198 145.176 403.114 145.333 403.064C145.49 403.014 145.656 402.999 145.82 403.02C145.994 403.025 146.161 403.087 146.295 403.198C146.429 403.308 146.522 403.46 146.56 403.63C146.78 404.63 145.14 406.63 144.28 407.13C144.232 407.148 144.178 407.148 144.13 407.13ZM145.64 403.43C145.463 403.429 145.293 403.493 145.16 403.61C144.57 404.14 144.39 405.61 144.35 406.5C145.21 405.8 146.23 404.32 146.09 403.69C146.09 403.59 146.01 403.46 145.73 403.43H145.64Z" fill="#407BFF"/>
<path d="M214.17 403.38C214.132 403.382 214.094 403.375 214.059 403.359C214.024 403.344 213.994 403.32 213.97 403.29C213.943 403.254 213.929 403.21 213.929 403.165C213.929 403.12 213.943 403.076 213.97 403.04C214.25 402.68 216.71 399.59 218.04 399.5H218.13C218.25 399.504 218.367 399.538 218.47 399.599C218.573 399.66 218.659 399.747 218.72 399.85C218.827 400.009 218.891 400.192 218.907 400.383C218.923 400.574 218.889 400.766 218.81 400.94C218.29 402.16 215.7 402.94 214.2 403.37L214.17 403.38ZM218.06 399.93C217.33 399.98 215.79 401.53 214.74 402.79C216.74 402.2 218.12 401.47 218.42 400.79C218.47 400.674 218.49 400.547 218.478 400.421C218.465 400.295 218.421 400.174 218.35 400.07C218.326 400.028 218.291 399.993 218.249 399.968C218.207 399.944 218.159 399.93 218.11 399.93H218.06Z" fill="#407BFF"/>
<path d="M214.17 403.38C214.133 403.376 214.097 403.361 214.067 403.338C214.037 403.315 214.014 403.285 214 403.25C214 403.16 213.09 400.91 213.73 399.57C213.823 399.372 213.955 399.194 214.118 399.048C214.282 398.902 214.473 398.791 214.68 398.72C215.26 398.51 215.56 398.72 215.68 398.9C216.29 399.73 215.15 402.4 214.35 403.31C214.327 403.335 214.299 403.354 214.268 403.366C214.237 403.378 214.203 403.383 214.17 403.38ZM215 399C214.911 399.01 214.824 399.03 214.74 399.06C214.587 399.113 214.446 399.196 214.326 399.304C214.206 399.412 214.109 399.544 214.04 399.69C213.764 400.68 213.817 401.733 214.19 402.69C214.93 401.62 215.61 399.62 215.25 399.12C215.224 399.078 215.187 399.045 215.142 399.024C215.098 399.003 215.049 398.994 215 399Z" fill="#407BFF"/>
<path d="M146.18 122.73C147.18 128.17 149.54 140.06 145.72 143.6C145.72 143.6 147.17 149.14 157.27 149.34C168.38 149.55 162.61 143.94 162.61 143.94C156.56 142.37 156.74 137.89 157.82 133.69L146.18 122.73Z" fill="#FF8B7B"/>
<path d="M143 146.36L141.06 136.77C143.846 137.583 146.72 138.053 149.62 138.17C153.51 138.17 161.94 137.86 166.13 136.41C167.29 138.05 173.37 142.41 173.37 142.41L170.65 147L143 146.36Z" fill="#407BFF"/>
<path opacity="0.8" d="M143 146.36L141.06 136.77C143.846 137.583 146.72 138.053 149.62 138.17C153.51 138.17 161.94 137.86 166.13 136.41C167.29 138.05 173.37 142.41 173.37 142.41L170.65 147L143 146.36Z" fill="white"/>
<path d="M167.86 112.28C167.792 112.27 167.728 112.246 167.67 112.21C167.574 112.147 167.507 112.048 167.483 111.936C167.459 111.824 167.479 111.707 167.54 111.61C167.901 111.029 168.397 110.544 168.985 110.196C169.574 109.848 170.237 109.647 170.92 109.61C171.035 109.61 171.145 109.655 171.228 109.735C171.31 109.816 171.357 109.925 171.36 110.04C171.36 110.155 171.315 110.265 171.235 110.348C171.154 110.43 171.045 110.477 170.93 110.48C170.389 110.516 169.865 110.682 169.402 110.964C168.939 111.246 168.55 111.636 168.27 112.1C168.226 112.166 168.164 112.217 168.091 112.249C168.018 112.281 167.938 112.292 167.86 112.28Z" fill="#263238"/>
<path d="M170.65 117.39C171.333 119.077 172.245 120.662 173.36 122.1C172.986 122.369 172.558 122.554 172.105 122.64C171.653 122.726 171.187 122.713 170.74 122.6L170.65 117.39Z" fill="#FF5652"/>
<path d="M170 116.12C170 116.86 170.41 117.46 170.89 117.46C171.37 117.46 171.76 116.86 171.74 116.12C171.72 115.38 171.33 114.78 170.85 114.78C170.37 114.78 170 115.38 170 116.12Z" fill="#263238"/>
<path d="M170.6 114.82L172.37 114.31C172.37 114.31 171.48 115.7 170.6 114.82Z" fill="#263238"/>
<path d="M205.43 409.15L214.3 406.1L208.04 386.37L199.18 389.43L205.43 409.15Z" fill="#FF8B7B"/>
<path d="M133.48 406.92H142.63L141.62 385.72H132.47L133.48 406.92Z" fill="#FF8B7B"/>
<path d="M143.35 405.86H133.06C132.885 405.858 132.716 405.92 132.583 406.034C132.451 406.148 132.364 406.307 132.34 406.48L131.28 414.62C131.262 414.827 131.287 415.035 131.354 415.232C131.42 415.428 131.527 415.609 131.667 415.762C131.807 415.915 131.978 416.038 132.167 416.122C132.357 416.206 132.562 416.249 132.77 416.25C136.36 416.19 138.08 415.98 142.6 415.98C145.39 415.98 149.45 416.26 153.3 416.26C157.15 416.26 157.3 412.47 155.69 412.12C148.49 410.58 147.33 408.45 144.88 406.42C144.449 406.064 143.909 405.867 143.35 405.86Z" fill="#263238"/>
<path d="M213.14 402.5L203.63 407C203.465 407.067 203.331 407.194 203.255 407.355C203.179 407.516 203.167 407.7 203.22 407.87L205.67 415.51C205.747 415.703 205.864 415.878 206.013 416.024C206.161 416.169 206.339 416.282 206.533 416.356C206.728 416.429 206.936 416.461 207.144 416.45C207.351 416.438 207.554 416.384 207.74 416.29C211.03 414.68 212.54 413.74 216.74 411.78C219.31 410.57 224.74 408.32 228.32 406.65C231.9 404.98 230.41 401.56 228.78 401.95C221.48 403.72 217.94 403.08 214.78 402.35C214.232 402.218 213.655 402.271 213.14 402.5Z" fill="#263238"/>
<path opacity="0.2" d="M208.04 386.38L211.4 396.94L202.4 399.6L199.17 389.43L208.04 386.38Z" fill="black"/>
<path opacity="0.2" d="M132.47 385.73H141.62L142.14 396.65H132.99L132.47 385.73Z" fill="black"/>
<path d="M129.91 145.37C126.1 146.13 121.91 159.72 121.91 159.72L132.61 171.35C132.61 171.35 141.61 158.69 139.82 153.93C138 149 134.41 144.48 129.91 145.37Z" fill="#407BFF"/>
<path opacity="0.2" d="M129.91 145.37C126.1 146.13 121.91 159.72 121.91 159.72L132.61 171.35C132.61 171.35 141.61 158.69 139.82 153.93C138 149 134.41 144.48 129.91 145.37Z" fill="black"/>
<path opacity="0.4" d="M135.89 154.19C137.82 152.47 139.12 153.02 140 154.43C140.85 158.51 135.62 166.91 133.51 170.09C132.57 166.23 131.51 158.1 135.89 154.19Z" fill="black"/>
<path d="M178.81 148.53C179.49 152.53 179.64 164.72 173.39 201.69L136.18 201C136.9 185.89 136.97 176.57 129.91 145.41C135.13 144.437 140.414 143.846 145.72 143.64C151.351 143.355 156.995 143.469 162.61 143.98C168.02 144.57 173.96 145.75 176.61 146.31C177.156 146.418 177.658 146.687 178.05 147.083C178.442 147.479 178.707 147.983 178.81 148.53Z" fill="#407BFF"/>
<path opacity="0.2" d="M178.81 148.53C179.49 152.53 179.64 164.72 173.39 201.69L136.18 201C136.9 185.89 136.97 176.57 129.91 145.41C135.13 144.437 140.414 143.846 145.72 143.64C151.351 143.355 156.995 143.469 162.61 143.98C168.02 144.57 173.96 145.75 176.61 146.31C177.156 146.418 177.658 146.687 178.05 147.083C178.442 147.479 178.707 147.983 178.81 148.53Z" fill="black"/>
<path d="M145.12 113.67C145.83 122.74 145.94 126.59 150.59 131.23C157.59 138.23 168.59 135.51 170.59 126.45C172.4 118.29 170.93 104.83 162 101.24C160.052 100.425 157.927 100.129 155.831 100.381C153.735 100.632 151.739 101.422 150.039 102.674C148.339 103.926 146.993 105.597 146.131 107.524C145.268 109.451 144.92 111.568 145.12 113.67Z" fill="#FF8B7B"/>
<path d="M147.52 97C137.68 97.73 135.4 109.29 139.23 116.67C133.13 125.95 133.87 129.3 135.82 131.46C139.17 135.2 156.41 139.7 166.73 131.93C171.34 128.46 162.8 116.12 162.8 116.12C162.8 116.12 167.77 95.47 147.52 97Z" fill="#263238"/>
<path d="M136.76 131.83C133.97 131.83 132.98 130.45 132.66 129.23C131.66 125.23 136.66 117.47 141.66 115.32C141.789 115.28 141.928 115.29 142.05 115.346C142.173 115.402 142.271 115.501 142.325 115.624C142.379 115.748 142.386 115.887 142.345 116.015C142.303 116.143 142.216 116.252 142.1 116.32C137.67 118.23 132.82 125.54 133.73 128.95C134.1 130.35 135.46 130.95 137.73 130.67C137.874 130.656 138.019 130.7 138.131 130.791C138.243 130.883 138.315 131.016 138.33 131.16C138.338 131.231 138.332 131.303 138.313 131.372C138.293 131.44 138.26 131.504 138.215 131.56C138.171 131.616 138.115 131.662 138.053 131.697C137.99 131.731 137.921 131.753 137.85 131.76C137.48 131.8 137.1 131.83 136.76 131.83Z" fill="#263238"/>
<path d="M151.61 120.22L140.78 120.58C140.353 120.595 139.928 120.523 139.53 120.369C139.132 120.215 138.769 119.982 138.463 119.684C138.158 119.386 137.916 119.029 137.752 118.635C137.588 118.24 137.506 117.817 137.51 117.39C137.514 116.513 137.855 115.672 138.461 115.039C139.068 114.407 139.894 114.031 140.77 113.99L151.6 113.63C152.027 113.615 152.452 113.687 152.85 113.841C153.248 113.995 153.611 114.228 153.917 114.526C154.222 114.824 154.464 115.181 154.628 115.575C154.792 115.97 154.874 116.393 154.87 116.82C154.866 117.697 154.525 118.538 153.919 119.171C153.312 119.803 152.486 120.179 151.61 120.22Z" fill="#407BFF"/>
<path d="M148.74 100.3C152.43 94.56 162.09 92.83 168.2 96.43C175.35 100.64 175.2 109.09 163.13 113.82C150 119 148.74 100.3 148.74 100.3Z" fill="#263238"/>
<path d="M165.17 113.72C166.634 114.982 167.656 116.677 168.09 118.56C168.63 120.95 167.09 120.63 165.32 119.65C163.72 118.77 161.22 117.03 161.32 115.04C161.42 113.05 163.6 112.37 165.17 113.72Z" fill="#FF8B7B"/>
<path d="M163.56 201.49C163.56 201.49 157.89 264.15 152.17 299.42C147.55 327.9 143.64 394.54 143.64 394.54H131.16C131.16 394.54 127.09 329.54 129.51 301.28C135.65 229.89 122.92 223.81 136.18 200.96L163.56 201.49Z" fill="#263238"/>
<path opacity="0.4" d="M150.87 222.44C154.12 227.22 158.46 232.73 159.87 238.55C158.75 249.12 157.44 260.81 156.02 272.05C152.58 262.6 146.7 243.71 150.87 222.44Z" fill="black"/>
<path d="M173.39 201.69C173.39 201.69 185.56 270.27 190.67 297.75C195.98 326.32 211.05 389.92 211.05 389.92L198.6 396.32C198.6 396.32 172.85 319.52 169.78 305.11C161.66 275 138.4 201 138.4 201L173.39 201.69Z" fill="#263238"/>
<path d="M213.63 392.59L198.5 398.62L195.56 393.35L211.75 386.88L213.63 392.59Z" fill="#407BFF"/>
<path d="M145.35 394.79H129.46L128.54 389.21L145.36 388.64L145.35 394.79Z" fill="#407BFF"/>
<path d="M135.64 198.77L133.94 202.06C133.81 202.31 134.12 202.58 134.55 202.59L173.55 203.36C173.89 203.36 174.17 203.2 174.19 202.99L174.54 199.68C174.54 199.45 174.28 199.25 173.91 199.24L136.24 198.5C136.125 198.488 136.009 198.506 135.903 198.553C135.798 198.601 135.707 198.676 135.64 198.77Z" fill="#407BFF"/>
<path d="M140.68 203.07H139.68C139.48 203.07 139.32 202.96 139.34 202.84L139.84 198.53C139.84 198.4 140.03 198.3 140.23 198.3H141.23C141.43 198.3 141.58 198.41 141.57 198.54L141.07 202.85C141.05 203 140.88 203.08 140.68 203.07Z" fill="#263238"/>
<path d="M165.13 203.55H164.13C163.93 203.55 163.78 203.44 163.8 203.32L164.29 199.01C164.29 198.88 164.48 198.78 164.69 198.78H165.69C165.9 198.78 166.05 198.89 166.03 199.02L165.53 203.33C165.51 203.46 165.33 203.56 165.13 203.55Z" fill="#263238"/>
<path d="M183.53 153.22C184.66 155.13 185.86 157.22 187.09 159.13C188.32 161.04 189.54 163.06 190.83 164.96C192.12 166.86 193.45 168.74 194.83 170.55C196.21 172.36 197.61 174.07 199.08 175.64C200.281 176.8 201.763 177.627 203.38 178.04C205.417 178.614 207.508 178.976 209.62 179.12C214.168 179.431 218.734 179.357 223.27 178.9L224.27 183.42C219.481 184.978 214.509 185.902 209.48 186.17C206.803 186.315 204.117 186.144 201.48 185.66C200.033 185.375 198.619 184.943 197.26 184.37C195.744 183.72 194.348 182.821 193.13 181.71C189.447 178.236 186.126 174.396 183.22 170.25C180.314 166.251 177.668 162.069 175.3 157.73L183.53 153.22Z" fill="#FF8B7B"/>
<path d="M178.2 146.53C187.08 147.94 190.75 160.61 190.75 160.61L180.08 170.89C180.08 170.89 168 159.8 168 152.74C168 147.49 173.36 145.76 178.2 146.53Z" fill="#407BFF"/>
<path opacity="0.2" d="M178.2 146.53C187.08 147.94 190.75 160.61 190.75 160.61L180.08 170.89C180.08 170.89 168 159.8 168 152.74C168 147.49 173.36 145.76 178.2 146.53Z" fill="black"/>
<path d="M233.79 173.14C233.67 174.73 233.46 176.3 233.23 177.86C233 179.42 232.72 180.97 232.43 182.51C232.14 184.05 231.81 185.59 231.43 187.12C231.05 188.65 231.12 190.28 229.43 191.43C229.161 191.58 228.85 191.638 228.545 191.595C228.239 191.551 227.957 191.409 227.74 191.19C227.655 191.103 227.581 191.005 227.52 190.9C226.52 189 227.39 187.61 227.67 186.07C227.95 184.53 228.46 183.07 228.89 181.53C229.32 179.99 229.78 178.53 230.27 177.04C230.76 175.55 231.27 174.04 231.88 172.61C232.009 172.411 232.205 172.265 232.432 172.197C232.659 172.13 232.903 172.145 233.12 172.24C233.309 172.306 233.474 172.427 233.593 172.587C233.713 172.748 233.781 172.94 233.79 173.14Z" fill="#263238"/>
<path d="M233.92 174.83L230.92 174.34C230.47 174.26 230.25 173.71 230.42 173.11C230.59 172.51 231.1 172.11 231.55 172.11L234.55 172.61C235 172.68 235.22 173.23 235.05 173.84C234.88 174.48 234.37 174.91 233.92 174.83Z" fill="#263238"/>
<path d="M238.92 151.1C234.36 149.78 229.08 153.63 227.14 159.71C225.2 165.79 227.32 171.79 231.88 173.11C236.44 174.43 241.72 170.57 243.67 164.5C245.62 158.43 243.49 152.42 238.92 151.1ZM232.44 171.37C228.59 170.26 226.81 165.21 228.44 160.09C230.07 154.97 234.52 151.73 238.36 152.84C242.2 153.95 244 159 242.36 164.12C240.72 169.24 236.28 172.48 232.44 171.37Z" fill="#407BFF"/>
<path opacity="0.1" d="M233.5 172C229.9 171 228.22 166.22 229.75 161.43C231.28 156.64 235.45 153.58 239.06 154.63C242.67 155.68 244.34 160.41 242.8 165.2C241.26 169.99 237.1 173 233.5 172Z" fill="#407BFF"/>
<path d="M220.39 183.75L230.19 185.58L231.19 177.36C231.19 177.36 223.13 177.83 220.36 180.36L220.39 183.75Z" fill="#FF8B7B"/>
<path d="M232.65 185.56L234.38 180.1C234.444 179.917 234.444 179.718 234.378 179.536C234.313 179.354 234.186 179.2 234.02 179.1L231.22 177.33L230.22 185.55L231.57 186.07C231.781 186.144 232.013 186.132 232.215 186.037C232.417 185.941 232.573 185.77 232.65 185.56Z" fill="#FF8B7B"/>
</g>
<defs>
<filter id="filter0_d_66_239" x="-20" y="-20" width="540" height="540" filterUnits="userSpaceOnUse" color-interpolation-filters="sRGB">
<feFlood flood-opacity="0" result="BackgroundImageFix"/>
<feColorMatrix in="SourceAlpha" type="matrix" values="0 0 0 0 0 0 0 0 0 0 0 0 0 0 0 0 0 0 127 0" result="hardAlpha"/>
<feOffset/>
<feGaussianBlur stdDeviation="10"/>
<feColorMatrix type="matrix" values="0 0 0 0 0.25098 0 0 0 0 0.482353 0 0 0 0 1 0 0 0 1 0"/>
<feBlend mode="normal" in2="BackgroundImageFix" result="effect1_dropShadow_66_239"/>
<feBlend mode="normal" in="SourceGraphic" in2="effect1_dropShadow_66_239" result="shape"/>
</filter>
</defs>
</svg>
