<svg width="500" height="500" viewBox="0 0 500 500" fill="none" xmlns="http://www.w3.org/2000/svg">
<g filter="url(#filter0_d_66_105)">
<path d="M300.4 279.49C300.47 279.553 300.537 279.62 300.6 279.69L301.17 280.28L303.37 282.61L311.67 291.5L341.08 323.21H340.74L374.1 285L374.33 284.74L374.52 285.03L376.95 288.69L402.19 326.69L401.84 326.63L426.1 307.25L426.24 307.14L426.36 307.27L444.88 328.27L449.88 334L451.18 335.5C451.47 335.84 451.61 336.02 451.61 336.02C451.61 336.02 451.44 335.86 451.14 335.54L449.82 334L444.72 328.34L426.08 307.49H426.34L402.14 327L401.94 327.16L401.79 326.94L376.52 289L374.08 285.33H374.49C362.35 299.23 350.93 312.28 341.09 323.54L340.92 323.73L340.75 323.54C328.67 310.4 318.56 299.42 311.47 291.7L303.27 282.7L301.12 280.32C300.89 280.05 300.71 279.85 300.57 279.7C300.43 279.55 300.39 279.5 300.4 279.49Z" fill="#E6E6E6"/>
<path d="M337.63 323.47C337.624 324.165 337.825 324.846 338.207 325.426C338.59 326.006 339.136 326.459 339.777 326.728C340.417 326.996 341.124 327.068 341.805 326.934C342.487 326.8 343.113 326.466 343.605 325.975C344.096 325.483 344.43 324.857 344.564 324.175C344.698 323.494 344.626 322.787 344.358 322.147C344.089 321.506 343.636 320.96 343.056 320.577C342.476 320.195 341.795 319.994 341.1 320C340.181 320.005 339.302 320.373 338.652 321.022C338.003 321.672 337.635 322.551 337.63 323.47Z" fill="#E0E0E0"/>
<path d="M398.9 327.64C398.904 328.333 399.113 329.009 399.502 329.582C399.89 330.156 400.44 330.601 401.081 330.862C401.723 331.123 402.428 331.188 403.106 331.048C403.784 330.908 404.406 330.57 404.892 330.077C405.379 329.584 405.708 328.957 405.838 328.277C405.968 327.597 405.893 326.893 405.623 326.255C405.353 325.617 404.9 325.074 404.32 324.694C403.741 324.314 403.063 324.114 402.37 324.12C401.443 324.128 400.558 324.503 399.907 325.163C399.257 325.823 398.895 326.713 398.9 327.64Z" fill="#E0E0E0"/>
<path d="M422.73 308.37C422.736 309.06 422.946 309.733 423.335 310.304C423.723 310.874 424.272 311.317 424.912 311.576C425.552 311.834 426.254 311.897 426.93 311.757C427.606 311.616 428.225 311.279 428.709 310.786C429.193 310.294 429.52 309.669 429.649 308.991C429.777 308.313 429.702 307.612 429.433 306.977C429.163 306.341 428.711 305.8 428.134 305.422C427.557 305.043 426.88 304.844 426.19 304.85C425.265 304.861 424.382 305.237 423.734 305.896C423.086 306.556 422.725 307.445 422.73 308.37Z" fill="#E0E0E0"/>
<path d="M370.8 285.47C370.804 286.163 371.013 286.839 371.402 287.412C371.79 287.986 372.34 288.431 372.981 288.692C373.623 288.953 374.328 289.018 375.006 288.878C375.685 288.738 376.306 288.4 376.792 287.907C377.279 287.414 377.608 286.787 377.738 286.107C377.868 285.427 377.793 284.723 377.523 284.085C377.253 283.447 376.8 282.904 376.221 282.524C375.641 282.144 374.963 281.944 374.27 281.95C373.343 281.958 372.458 282.333 371.807 282.993C371.157 283.653 370.795 284.543 370.8 285.47Z" fill="#E0E0E0"/>
<path d="M448.85 336.12C448.854 336.813 449.063 337.489 449.452 338.062C449.84 338.636 450.39 339.081 451.031 339.342C451.673 339.603 452.378 339.668 453.056 339.528C453.734 339.388 454.356 339.05 454.842 338.557C455.329 338.064 455.658 337.437 455.788 336.757C455.918 336.077 455.843 335.373 455.573 334.735C455.303 334.097 454.85 333.554 454.27 333.174C453.691 332.794 453.013 332.594 452.32 332.6C451.393 332.608 450.508 332.983 449.857 333.643C449.207 334.303 448.845 335.193 448.85 336.12Z" fill="#E0E0E0"/>
<path d="M142.31 71.3H119.84V160.67H142.31V71.3Z" fill="#E6E6E6"/>
<path d="M175.36 90.79H152.89V160.66H175.36V90.79Z" fill="#E6E6E6"/>
<path d="M208.92 106.75H186.45V160.66H208.92V106.75Z" fill="#E6E6E6"/>
<path d="M239.99 128.65H217.52V160.67H239.99V128.65Z" fill="#E6E6E6"/>
<path d="M222 49C222 49 221.79 49.27 221.38 49.75L219.51 51.9L212.4 60L186.76 89L186.62 89.15L186.46 89.03L169.73 76.21H170.07L146.67 105.87L146.39 106.23L146.22 106.45L146.01 106.26L114.5 78.43H114.85C102.48 94.67 92 108.54 84.5 118.35L75.77 129.76L73.44 132.76L72.83 133.53C72.7619 133.621 72.6885 133.708 72.61 133.79C72.6668 133.692 72.7303 133.599 72.8 133.51L73.38 132.71L75.65 129.64L84.26 118.15L114.46 78.09L114.62 77.88L114.81 78.05L146.36 105.81H145.98L146.26 105.45L169.69 75.81L169.84 75.62L170.03 75.77L186.73 88.58H186.43L212.2 59.81C215.31 56.36 217.75 53.65 219.42 51.81L221.33 49.71C221.77 49.21 222 49 222 49Z" fill="#E6E6E6"/>
<path d="M218.29 69.73C218.282 69.5783 218.299 69.4263 218.34 69.28L218.59 68C218.85 66.81 219.2 65.23 219.59 63.3C220.48 59.3 221.74 53.84 223.19 47.72L223.51 48.02L222.38 48.37C216.11 50.3 210.43 52.01 206.31 53.23L201.42 54.64L200.08 55C199.926 55.0573 199.764 55.0877 199.6 55.09C199.743 55.0121 199.894 54.9484 200.05 54.9L201.36 54.45L206.2 52.88C210.29 51.57 215.96 49.8 222.2 47.88L223.33 47.54L223.77 47.4L223.66 47.85C222.27 54 221 59.44 220 63.39C219.51 65.3 219.11 66.87 218.82 68.05C218.68 68.54 218.56 68.96 218.47 69.3C218.431 69.4514 218.371 69.5963 218.29 69.73Z" fill="#E6E6E6"/>
<path d="M395.55 200.11C400.015 200.037 404.401 201.29 408.154 203.711C411.907 206.131 414.858 209.61 416.634 213.707C418.41 217.804 418.932 222.336 418.132 226.729C417.333 231.123 415.248 235.181 412.143 238.39C409.037 241.599 405.05 243.815 400.685 244.758C396.32 245.701 391.774 245.328 387.62 243.688C383.467 242.047 379.894 239.211 377.352 235.54C374.81 231.868 373.414 227.525 373.34 223.06C373.249 217.073 375.536 211.295 379.7 206.993C383.864 202.691 389.564 200.215 395.55 200.11ZM396.09 233.49C398.225 233.45 400.3 232.779 402.053 231.56C403.806 230.341 405.158 228.63 405.94 226.643C406.721 224.656 406.896 222.482 406.442 220.396C405.988 218.31 404.926 216.405 403.39 214.922C401.854 213.439 399.913 212.445 397.812 212.065C395.711 211.684 393.544 211.935 391.586 212.786C389.628 213.636 387.966 215.048 386.809 216.843C385.653 218.638 385.055 220.735 385.09 222.87C385.115 224.29 385.419 225.691 385.985 226.993C386.551 228.295 387.369 229.472 388.39 230.459C389.412 231.445 390.617 232.22 391.938 232.74C393.26 233.26 394.67 233.515 396.09 233.49Z" fill="#E0E0E0"/>
<path d="M395.51 197.3C402.244 197.204 408.741 199.781 413.577 204.468C418.413 209.154 421.194 215.567 421.31 222.3L405.91 222.7C405.81 216.01 401.28 213.29 395.91 212.95C394.59 212.871 393.269 213.066 392.028 213.523C390.788 213.98 389.655 214.688 388.702 215.604C387.748 216.52 386.995 217.623 386.488 218.844C385.982 220.066 385.734 221.378 385.76 222.7L370.52 223.11C370.416 216.375 372.989 209.874 377.675 205.034C382.36 200.195 388.775 197.413 395.51 197.3Z" fill="#F0F0F0"/>
<path d="M212.71 299.61C220.484 291.453 231.149 286.673 242.411 286.299C253.673 285.925 264.632 289.986 272.93 297.61C277.006 301.367 280.296 305.895 282.609 310.933C284.922 315.971 286.213 321.418 286.405 326.958C286.598 332.498 285.689 338.021 283.731 343.207C281.773 348.393 278.806 353.139 275 357.17C267.226 365.327 256.561 370.107 245.299 370.481C234.037 370.855 223.078 366.794 214.78 359.17C210.704 355.413 207.414 350.885 205.101 345.847C202.788 340.809 201.497 335.362 201.305 329.822C201.112 324.282 202.021 318.759 203.979 313.573C205.937 308.387 208.904 303.641 212.71 299.61ZM258.71 342.15C260.534 340.224 261.957 337.954 262.896 335.472C263.834 332.991 264.27 330.347 264.177 327.696C264.084 325.044 263.464 322.438 262.354 320.028C261.244 317.618 259.665 315.454 257.71 313.66C253.738 310.019 248.495 308.084 243.11 308.271C237.726 308.458 232.63 310.752 228.92 314.66C227.096 316.586 225.673 318.856 224.734 321.338C223.796 323.819 223.36 326.463 223.453 329.114C223.546 331.766 224.166 334.372 225.276 336.782C226.386 339.192 227.965 341.356 229.92 343.15C233.892 346.799 239.139 348.74 244.53 348.553C249.92 348.366 255.021 346.066 258.73 342.15H258.71Z" fill="#F5F5F5"/>
<path d="M212.71 299.61C220.484 291.453 231.149 286.673 242.411 286.299C253.673 285.925 264.632 289.986 272.93 297.61L257.75 313.69C253.778 310.049 248.535 308.114 243.15 308.301C237.766 308.488 232.67 310.782 228.96 314.69C227.136 316.616 225.713 318.886 224.774 321.368C223.836 323.849 223.4 326.493 223.493 329.144C223.586 331.796 224.206 334.402 225.316 336.812C226.426 339.222 228.005 341.386 229.96 343.18L214.76 359.2C210.681 355.441 207.388 350.91 205.074 345.869C202.76 340.828 201.471 335.377 201.28 329.833C201.089 324.29 202.001 318.764 203.964 313.575C205.926 308.387 208.899 303.64 212.71 299.61Z" fill="#E0E0E0"/>
<path d="M271.19 290.7C292.19 310.13 294.74 341.7 275.09 362.54L253.76 344.15C263.15 334.2 265.19 320.91 255.14 311.62L271.19 290.7Z" fill="#EBEBEB"/>
<path d="M251.54 345.47L264.21 370.53C269.449 368.61 274.17 365.498 278 361.44L255.24 343.06L251.54 345.47Z" fill="#E0E0E0"/>
<path d="M299.34 114.15C299.155 102.917 302.307 91.8819 308.395 82.4403C314.483 72.9987 323.235 65.575 333.543 61.1083C343.851 56.6417 355.253 55.3328 366.305 57.3472C377.358 59.3616 387.564 64.6088 395.634 72.425C403.703 80.2413 409.273 90.2753 411.639 101.258C414.005 112.24 413.06 123.678 408.924 134.123C404.788 144.568 397.648 153.553 388.405 159.939C379.162 166.325 368.233 169.826 357 170C341.955 170.214 327.439 164.456 316.631 153.988C305.824 143.519 299.606 129.194 299.34 114.15ZM383.27 112.8C383.182 107.431 381.505 102.209 378.449 97.7937C375.394 93.3784 371.098 89.9683 366.104 87.9944C361.111 86.0206 355.644 85.5718 350.395 86.7047C345.147 87.8376 340.352 90.5013 336.617 94.3592C332.882 98.217 330.375 103.096 329.413 108.378C328.451 113.661 329.077 119.11 331.211 124.037C333.346 128.964 336.893 133.147 341.405 136.058C345.917 138.969 351.191 140.476 356.56 140.39C363.758 140.266 370.614 137.292 375.621 132.119C380.629 126.947 383.38 119.999 383.27 112.8Z" fill="#FAFAFA"/>
<path d="M299.34 114.15C299.113 99.0951 304.868 84.565 315.343 73.7491C325.817 62.9332 340.155 56.7152 355.21 56.46L355.69 86.09C348.489 86.2054 341.629 89.1764 336.619 94.3496C331.609 99.5228 328.86 106.474 328.975 113.675C329.09 120.876 332.061 127.736 337.235 132.746C342.408 137.756 349.359 140.505 356.56 140.39L357 170C341.954 170.219 327.434 164.463 316.625 153.994C305.817 143.524 299.6 129.196 299.34 114.15Z" fill="#E0E0E0"/>
<path d="M350.11 51.9C386.74 51.31 415.97 79.61 416.55 116.24L381.88 116.8C381.6 99.28 368.21 88.25 350.7 88.54L350.11 51.9Z" fill="#F0F0F0"/>
<path d="M185.47 313.27L370.77 311.94V314.54L185.47 316.2V313.27Z" fill="#263238"/>
<path d="M181.43 124.88L185.65 314.82L370.77 313.38V121.69L181.43 124.88Z" fill="white"/>
<path d="M181.43 124.88L370.77 121.47H371V121.7C371 176.57 371 241.32 371 310.4V313.65H370.74L185.62 315.06H185.4V314.84C183.01 201 181.45 126.84 181.4 124.89C181.4 126.81 183.18 201 185.84 314.82L185.62 314.6L370.74 313.13L370.48 313.39V310.39C370.48 241.31 370.48 176.56 370.48 121.69L370.71 121.92L181.43 124.88Z" fill="#263238"/>
<path d="M180.69 126.15L371.58 125.06L371.82 117.05L180.69 118.24V126.15Z" fill="#263238"/>
<path d="M272.07 320C271.75 320 271.41 318.51 271.32 316.65C271.23 314.79 271.43 313.27 271.75 313.25C272.07 313.23 272.41 314.73 272.5 316.59C272.59 318.45 272.4 320 272.07 320Z" fill="#263238"/>
<path d="M272 318.63C272 318.56 272.32 318.54 272.82 318.74C273.122 318.867 273.404 319.035 273.66 319.24C274.004 319.517 274.292 319.856 274.51 320.24C274.807 320.771 274.956 321.372 274.942 321.981C274.928 322.589 274.751 323.183 274.43 323.7C274.238 324.012 273.994 324.289 273.71 324.52C273.413 324.759 273.074 324.938 272.71 325.05C271.937 325.264 271.114 325.203 270.38 324.88C270.009 324.715 269.67 324.484 269.38 324.2C269.091 323.915 268.863 323.575 268.71 323.2C268.433 322.518 268.374 321.767 268.54 321.05C268.663 320.452 268.951 319.901 269.372 319.459C269.793 319.017 270.329 318.702 270.92 318.55C271.676 318.343 272.482 318.414 273.19 318.75C273.67 318.99 273.85 319.24 273.81 319.3C273.77 319.36 273.5 319.3 273.04 319.18C272.414 319.063 271.767 319.118 271.17 319.34C270.785 319.49 270.442 319.73 270.17 320.04C269.858 320.406 269.654 320.851 269.582 321.327C269.509 321.802 269.571 322.288 269.76 322.73C269.978 323.205 270.367 323.58 270.85 323.78C271.331 323.995 271.87 324.041 272.38 323.91C272.849 323.789 273.256 323.496 273.52 323.09C273.781 322.707 273.936 322.262 273.97 321.8C274 321.591 274 321.379 273.97 321.17C273.937 320.974 273.88 320.782 273.8 320.6C273.544 320.012 273.141 319.499 272.63 319.11C272.26 318.85 272 318.71 272 318.63Z" fill="#263238"/>
<path d="M299.54 228.82C299.54 228.82 299.54 228.82 299.42 228.82H299.08L297.76 228.88L292.67 229.1L273.95 229.8C258.14 230.38 236.29 231.15 212.17 231.98L203.87 232.26H203.68V232.07C202 210 200.48 190.22 199.43 176C198.91 168.9 198.5 163.19 198.21 159.26C198.08 157.26 197.97 155.77 197.9 154.74C197.9 154.22 197.84 153.83 197.83 153.56C197.82 153.29 197.83 153.33 197.83 153.26C197.83 153.19 197.83 153.16 197.83 153.16C197.835 153.193 197.835 153.227 197.83 153.26C197.83 153.33 197.83 153.43 197.83 153.56C197.83 153.69 197.89 154.22 197.94 154.73C198.02 155.73 198.15 157.28 198.32 159.25C198.63 163.18 199.09 168.89 199.66 175.97C200.78 190.15 202.32 209.88 204.02 232.04L203.82 231.86L212.12 231.57C236.24 230.75 258.12 230.02 273.9 229.52L292.63 228.94L297.72 228.8H299.04H299.5L299.54 228.82Z" fill="#455A64"/>
<path d="M232.51 147.01V149.56L258.89 148.3V146.16L232.51 147.01Z" fill="#263238"/>
<path d="M212.54 226.64H221.71L220.27 201.75H211.28L212.54 226.64Z" fill="#FF725E"/>
<path d="M229.16 226.65H238.32L236.89 191.86H227.9L229.16 226.65Z" fill="#FF725E"/>
<path d="M244.72 225.54H253.89L252.45 179.99H243.47L244.72 225.54Z" fill="#FF725E"/>
<path d="M280.42 223.77H289.58L288.15 161.69H279.16L280.42 223.77Z" fill="#FF725E"/>
<path d="M263.05 223.98H272.21L270.77 170.56H261.79L263.05 223.98Z" fill="#FF725E"/>
<path d="M206.78 195.3C206.54 194.93 222.92 184.01 243.35 170.91C263.78 157.81 280.56 147.49 280.8 147.91C281.04 148.33 264.66 159.2 244.22 172.3C223.78 185.4 207 195.67 206.78 195.3Z" fill="#FF725E"/>
<path d="M271.73 147.87C271.65 147.43 277.58 145.95 285 144.55L286.88 144.2L285.81 145.79L285.75 145.88C281.51 152.18 277.75 157.09 277.4 156.88C277.05 156.67 280.18 151.33 284.4 145.02L284.46 144.93L285.28 146.17C277.87 147.52 271.81 148.3 271.73 147.87Z" fill="#FF725E"/>
<path d="M211.28 235.05H220.86L221.16 236.75H211.28V235.05Z" fill="#263238"/>
<path d="M228.24 234.35H237.82L238.12 236.05H228.24V234.35Z" fill="#263238"/>
<path d="M245.7 233.85H255.28L255.58 235.55H245.7V233.85Z" fill="#263238"/>
<path d="M262.06 233.44H271.64L271.94 235.15H262.06V233.44Z" fill="#263238"/>
<path d="M282.33 232.84H291.91L292.21 234.55H282.33V232.84Z" fill="#263238"/>
<path d="M325.3 300.62C342.189 300.62 355.88 286.929 355.88 270.04C355.88 253.151 342.189 239.46 325.3 239.46C308.411 239.46 294.72 253.151 294.72 270.04C294.72 286.929 308.411 300.62 325.3 300.62Z" fill="#FF725E"/>
<path opacity="0.3" d="M325.3 300.62C342.189 300.62 355.88 286.929 355.88 270.04C355.88 253.151 342.189 239.46 325.3 239.46C308.411 239.46 294.72 253.151 294.72 270.04C294.72 286.929 308.411 300.62 325.3 300.62Z" fill="black"/>
<path d="M325.3 270L295.47 276.71C290.67 254.71 308.41 239.42 325.3 239.42" fill="#FF725E"/>
<path d="M325.34 270L325.14 239.42C347.66 239.42 358.82 260.01 355.22 276.51L325.34 270Z" fill="#FF725E"/>
<path d="M325.34 270L325.14 239.42C347.66 239.42 358.82 260.01 355.22 276.51L325.34 270Z" fill="#FF725E"/>
<path opacity="0.1" d="M325.34 270L325.14 239.42C347.66 239.42 358.82 260.01 355.22 276.51L325.34 270Z" fill="black"/>
<path d="M356.67 197.63C356.076 197.233 355.443 196.898 354.78 196.63C352.933 196.065 350.952 196.121 349.14 196.79C346.8 197.52 344.48 199.38 342.23 201.71C339.98 204.04 337.57 206.86 334.05 208.51C332.352 209.354 330.44 209.671 328.56 209.42C326.864 209.068 325.225 208.483 323.69 207.68C322.339 206.976 320.894 206.468 319.4 206.17C318.1 205.966 316.769 206.132 315.56 206.65C313.78 207.405 312.324 208.765 311.45 210.49C311.169 211.138 310.938 211.807 310.76 212.49C310.791 211.767 310.965 211.056 311.27 210.4C312.107 208.579 313.579 207.125 315.41 206.31C316.664 205.752 318.05 205.554 319.41 205.74C320.954 206.026 322.449 206.532 323.85 207.24C325.345 208.016 326.94 208.581 328.59 208.92C330.369 209.141 332.174 208.835 333.78 208.04C337.16 206.46 339.53 203.66 341.84 201.37C344.15 199.08 346.54 197.15 348.97 196.44C350.858 195.782 352.912 195.782 354.8 196.44C355.304 196.634 355.778 196.897 356.21 197.22C356.38 197.337 356.534 197.475 356.67 197.63Z" fill="#263238"/>
<path d="M359.26 217.39C359.26 217.54 348.4 217.65 335.01 217.65C321.62 217.65 310.76 217.54 310.76 217.39C310.76 217.24 321.62 217.13 335.01 217.13C348.4 217.13 359.26 217.25 359.26 217.39Z" fill="#263238"/>
<path d="M356.56 217.39C356.42 217.39 356.3 211.21 356.3 203.58C356.3 195.95 356.42 189.78 356.56 189.78C356.7 189.78 356.82 195.96 356.82 203.58C356.82 211.2 356.71 217.39 356.56 217.39Z" fill="#263238"/>
<path d="M315.65 205.76C315.65 205.76 315.58 205.66 315.65 205.48C315.696 205.354 315.769 205.239 315.864 205.144C315.959 205.049 316.074 204.976 316.2 204.93C316.39 204.846 316.6 204.815 316.806 204.842C317.012 204.868 317.207 204.951 317.37 205.08C317.546 205.278 317.65 205.529 317.665 205.794C317.68 206.058 317.604 206.32 317.451 206.536C317.298 206.752 317.076 206.909 316.821 206.983C316.567 207.056 316.295 207.041 316.05 206.94C315.878 206.837 315.736 206.69 315.639 206.515C315.543 206.339 315.495 206.14 315.5 205.94C315.498 205.807 315.522 205.674 315.572 205.551C315.622 205.427 315.696 205.315 315.79 205.22C315.94 205.1 316.05 205.1 316.06 205.12C316.07 205.14 315.79 205.41 315.86 205.92C315.874 206.051 315.918 206.177 315.989 206.288C316.061 206.399 316.157 206.492 316.27 206.56C316.41 206.595 316.558 206.588 316.694 206.538C316.83 206.488 316.947 206.398 317.031 206.281C317.116 206.163 317.162 206.023 317.166 205.878C317.169 205.734 317.129 205.591 317.05 205.47C316.95 205.388 316.831 205.331 316.704 205.305C316.576 205.279 316.445 205.284 316.32 205.32C315.81 205.4 315.72 205.78 315.65 205.76Z" fill="#263238"/>
<path d="M348.35 195.73C348.35 195.73 348.35 195.61 348.53 195.51C348.763 195.393 349.032 195.372 349.28 195.45C349.477 195.504 349.656 195.61 349.797 195.758C349.938 195.906 350.036 196.09 350.08 196.29C350.095 196.548 350.023 196.803 349.876 197.015C349.728 197.227 349.513 197.384 349.266 197.459C349.019 197.534 348.754 197.523 348.513 197.429C348.273 197.335 348.071 197.163 347.94 196.94C347.868 196.747 347.849 196.538 347.886 196.336C347.923 196.134 348.014 195.945 348.15 195.79C348.319 195.59 348.559 195.465 348.82 195.44C349 195.44 349.09 195.5 349.08 195.53C349.07 195.56 348.7 195.58 348.45 196.01C348.381 196.117 348.338 196.239 348.324 196.366C348.31 196.492 348.326 196.62 348.37 196.74C348.458 196.848 348.576 196.927 348.709 196.968C348.842 197.008 348.985 197.008 349.118 196.967C349.251 196.926 349.369 196.847 349.457 196.739C349.544 196.631 349.598 196.499 349.61 196.36C349.583 196.236 349.528 196.119 349.448 196.02C349.368 195.921 349.266 195.842 349.15 195.79C348.71 195.57 348.4 195.8 348.35 195.73Z" fill="#263238"/>
<path d="M355.7 163C355.7 163.14 345.18 163.26 332.21 163.26C319.24 163.26 308.72 163.14 308.72 163C308.72 162.86 319.23 162.74 332.21 162.74C345.19 162.74 355.7 162.88 355.7 163Z" fill="#263238"/>
<path d="M355.7 169.55C355.7 169.7 345.18 169.81 332.21 169.81C319.24 169.81 308.72 169.7 308.72 169.55C308.72 169.4 319.23 169.29 332.21 169.29C345.19 169.29 355.7 169.41 355.7 169.55Z" fill="#263238"/>
<path d="M355.7 176.08C355.7 176.22 345.18 176.34 332.21 176.34C319.24 176.34 308.72 176.22 308.72 176.08C308.72 175.94 319.23 175.82 332.21 175.82C345.19 175.82 355.7 175.93 355.7 176.08Z" fill="#263238"/>
<path d="M355.7 182.6C355.7 182.75 345.18 182.86 332.21 182.86C319.24 182.86 308.72 182.75 308.72 182.6C308.72 182.45 319.23 182.34 332.21 182.34C345.19 182.34 355.7 182.46 355.7 182.6Z" fill="#263238"/>
<path d="M333.72 151.09H308.72V153.2H333.72V151.09Z" fill="#263238"/>
<path d="M230.52 255.85H205.52V257.96H230.52V255.85Z" fill="#263238"/>
<path d="M273.93 268.08C273.93 268.23 258.76 268.34 240.05 268.34C221.34 268.34 206.16 268.23 206.16 268.08C206.16 267.93 221.33 267.82 240.05 267.82C258.77 267.82 273.93 267.94 273.93 268.08Z" fill="#263238"/>
<path d="M274.33 274C274.33 274.14 258.89 274.26 239.85 274.26C220.81 274.26 205.37 274.14 205.37 274C205.37 273.86 220.8 273.74 239.85 273.74C258.9 273.74 274.33 273.88 274.33 274Z" fill="#263238"/>
<path d="M275.12 279.58C275.12 279.72 259.59 279.84 240.44 279.84C221.29 279.84 205.76 279.72 205.76 279.58C205.76 279.44 221.29 279.32 240.44 279.32C259.59 279.32 275.12 279.43 275.12 279.58Z" fill="#263238"/>
<path d="M241.83 285.52C241.83 285.66 233.83 285.78 223.99 285.78C214.15 285.78 206.16 285.66 206.16 285.52C206.16 285.38 214.16 285.26 223.99 285.26C233.82 285.26 241.83 285.38 241.83 285.52Z" fill="#263238"/>
<path d="M132.93 447.4V438.4L116 438.25L115.86 451.48L116.86 451.55C121.53 451.84 140.62 452.69 143.75 451.77C147.29 450.73 132.93 447.4 132.93 447.4Z" fill="#FF725E"/>
<path d="M144.2 450.94C144.2 451.1 137.87 451.23 130.06 451.23C122.25 451.23 115.91 451.1 115.91 450.94C115.91 450.78 122.25 450.65 130.06 450.65C137.87 450.65 144.2 450.78 144.2 450.94Z" fill="#263238"/>
<path d="M133.23 449.25C133.09 449.17 133.23 448.68 133.57 448.25C133.91 447.82 134.38 447.54 134.48 447.65C134.58 447.76 134.36 448.17 134.03 448.65C133.7 449.13 133.37 449.33 133.23 449.25Z" fill="#263238"/>
<path d="M134.31 449.84C134.16 449.78 134.24 449.24 134.57 448.68C134.9 448.12 135.34 447.78 135.46 447.88C135.58 447.98 135.38 448.45 135.07 448.97C134.76 449.49 134.46 449.9 134.31 449.84Z" fill="#263238"/>
<path d="M121 450.88C120.93 450.93 120.67 450.69 120.3 450.29C119.85 449.767 119.351 449.289 118.81 448.86C118.271 448.464 117.642 448.206 116.98 448.11C116.47 448.04 116.14 448.11 116.11 448.03C116.08 447.95 116.4 447.74 116.99 447.7C117.768 447.678 118.529 447.921 119.15 448.39C119.742 448.843 120.243 449.403 120.63 450.04C120.94 450.51 121.08 450.83 121 450.88Z" fill="#263238"/>
<path d="M133.28 447.55C133.36 447.68 133.06 448 132.58 448.17C132.1 448.34 131.67 448.28 131.65 448.12C131.63 447.96 131.96 447.78 132.39 447.63C132.82 447.48 133.19 447.41 133.28 447.55Z" fill="#263238"/>
<path d="M133 446.67C133 446.83 132.56 446.97 132 446.98C131.44 446.99 131 446.86 131 446.7C131 446.54 131.46 446.41 132 446.4C132.54 446.39 133 446.51 133 446.67Z" fill="#FF725E"/>
<path d="M144.2 450.94C144.2 451.1 137.87 451.23 130.06 451.23C122.25 451.23 115.91 451.1 115.91 450.94C115.91 450.78 122.25 450.65 130.06 450.65C137.87 450.65 144.2 450.78 144.2 450.94Z" fill="#263238"/>
<path d="M133.23 449.25C133.09 449.17 133.23 448.68 133.57 448.25C133.91 447.82 134.38 447.54 134.48 447.65C134.58 447.76 134.36 448.17 134.03 448.65C133.7 449.13 133.37 449.33 133.23 449.25Z" fill="#263238"/>
<path d="M134.31 449.84C134.16 449.78 134.24 449.24 134.57 448.68C134.9 448.12 135.34 447.78 135.46 447.88C135.58 447.98 135.38 448.45 135.07 448.97C134.76 449.49 134.46 449.9 134.31 449.84Z" fill="#263238"/>
<path d="M121 450.88C120.93 450.93 120.67 450.69 120.3 450.29C119.85 449.767 119.351 449.289 118.81 448.86C118.271 448.464 117.642 448.206 116.98 448.11C116.47 448.04 116.14 448.11 116.11 448.03C116.08 447.95 116.4 447.74 116.99 447.7C117.768 447.678 118.529 447.921 119.15 448.39C119.742 448.843 120.243 449.403 120.63 450.04C120.94 450.51 121.08 450.83 121 450.88Z" fill="#263238"/>
<path d="M133.28 447.55C133.36 447.68 133.06 448 132.58 448.17C132.1 448.34 131.67 448.28 131.65 448.12C131.63 447.96 131.96 447.78 132.39 447.63C132.82 447.48 133.19 447.41 133.28 447.55Z" fill="#263238"/>
<path d="M133 446.67C133 446.83 132.56 446.97 132 446.98C131.44 446.99 131 446.86 131 446.7C131 446.54 131.46 446.41 132 446.4C132.54 446.39 133 446.51 133 446.67Z" fill="#263238"/>
<path d="M150.79 444.2L153.46 435.57L137.32 430.45L133.32 443.04L134.32 443.42C138.69 445.08 156.68 451.54 159.94 451.59C163.52 451.63 150.79 444.2 150.79 444.2Z" fill="#FF725E"/>
<path d="M160.51 450.91C160.51 451.07 154.37 449.32 146.91 447C139.45 444.68 133.44 442.69 133.49 442.54C133.54 442.39 139.62 444.14 147.09 446.45C154.56 448.76 160.56 450.76 160.51 450.91Z" fill="#263238"/>
<path d="M150.53 446.05C150.42 445.93 150.68 445.51 151.16 445.16C151.64 444.81 152.16 444.72 152.21 444.86C152.26 445 151.94 445.32 151.5 445.64C151.06 445.96 150.64 446.16 150.53 446.05Z" fill="#263238"/>
<path d="M151.38 446.94C151.26 446.84 151.49 446.34 151.98 445.94C152.47 445.54 152.98 445.31 153.07 445.44C153.16 445.57 152.82 445.96 152.37 446.37C151.92 446.78 151.51 447 151.38 446.94Z" fill="#263238"/>
<path d="M138.38 444C138.3 444 138.13 443.73 137.9 443.23C137.625 442.599 137.29 441.996 136.9 441.43C136.503 440.893 135.981 440.461 135.38 440.17C134.91 439.96 134.57 439.92 134.57 439.84C134.57 439.76 134.93 439.64 135.51 439.78C136.256 439.992 136.908 440.45 137.36 441.08C137.788 441.685 138.103 442.363 138.29 443.08C138.42 443.62 138.45 444 138.38 444Z" fill="#455A64"/>
<path d="M151.08 444.44C151.08 444.59 150.74 444.81 150.23 444.83C149.72 444.85 149.32 444.66 149.35 444.5C149.38 444.34 149.76 444.27 150.21 444.25C150.66 444.23 151 444.28 151.08 444.44Z" fill="#263238"/>
<path d="M151.08 443.53C151.08 443.68 150.58 443.68 150.03 443.53C149.48 443.38 149.09 443.11 149.14 442.96C149.19 442.81 149.67 442.82 150.19 442.96C150.71 443.1 151.12 443.37 151.08 443.53Z" fill="#263238"/>
<path d="M162.28 268.63L140.06 266.92L106.4 264.19L110.16 445L139.39 444.62C139.39 444.62 139.39 442.62 139.32 439.08L156.46 443.77C156.46 443.77 173.16 387.35 178.85 364.2C183.6 344.91 162.28 268.63 162.28 268.63ZM139 411C138.56 369.26 138.05 298.28 138.66 289.6C138.66 289.6 154.94 352.09 155.09 357.02C155.19 360 146.12 388.84 139 411Z" fill="#455A64"/>
<path d="M139.55 437.77C139.55 437.93 133.01 438.06 124.95 438.06C116.89 438.06 110.34 437.93 110.34 437.77C110.34 437.61 116.88 437.48 124.95 437.48C133.02 437.48 139.55 437.61 139.55 437.77Z" fill="#455A64"/>
<path d="M139.29 431.27C140.204 431.487 141.1 431.774 141.97 432.13L148.66 434.46L155.35 436.8C156.296 437.071 157.214 437.432 158.09 437.88C157.113 437.744 156.152 437.513 155.22 437.19C153.48 436.68 151.09 435.92 148.47 435.01C145.85 434.1 143.47 433.2 141.83 432.51C140.93 432.216 140.075 431.799 139.29 431.27Z" fill="#455A64"/>
<path d="M166.07 356.46C164.262 356.881 162.416 357.116 160.56 357.16C158.719 357.395 156.86 357.439 155.01 357.29C156.817 356.861 158.664 356.623 160.52 356.58C162.361 356.345 164.221 356.305 166.07 356.46Z" fill="#455A64"/>
<path d="M164.16 359.74C162.722 359.619 161.307 359.309 159.95 358.82C158.538 358.512 157.172 358.017 155.89 357.35C157.332 357.459 158.751 357.766 160.11 358.26C162.39 358.92 164.21 359.58 164.16 359.74Z" fill="#455A64"/>
<path d="M141.35 267.15C141.484 268.291 141.534 269.441 141.5 270.59C141.5 272.72 141.5 275.66 141.5 278.91C141.5 280.52 141.5 282.06 141.44 283.48C141.477 284.759 141.238 286.031 140.74 287.21C140.385 288.013 139.818 288.705 139.1 289.21C138.855 289.413 138.563 289.551 138.25 289.61C138.25 289.61 138.53 289.43 138.98 289.05C139.611 288.509 140.102 287.823 140.41 287.05C140.827 285.904 141.014 284.688 140.96 283.47C140.96 282.04 140.96 280.47 140.96 278.89C140.96 275.64 141.04 272.7 141.1 270.58C141.097 269.432 141.18 268.285 141.35 267.15Z" fill="#455A64"/>
<path d="M124.62 266.13C124.631 266.276 124.631 266.424 124.62 266.57C124.62 266.89 124.62 267.32 124.62 267.87C124.62 269.03 124.53 270.71 124.46 272.87C124.32 277.22 124.12 283.47 123.87 291.18C123.4 306.64 122.92 328.01 122.8 351.6C122.68 375.19 122.95 396.6 123.26 412.05C123.43 419.76 123.56 426.05 123.66 430.36C123.66 432.51 123.74 434.18 123.77 435.36C123.77 435.91 123.77 436.36 123.77 436.66C123.781 436.806 123.781 436.954 123.77 437.1C123.759 436.954 123.759 436.806 123.77 436.66C123.77 436.35 123.77 435.92 123.7 435.37C123.7 434.2 123.59 432.53 123.5 430.37C123.33 426.05 123.13 419.79 122.93 412.06C122.52 396.59 122.2 375.22 122.32 351.6C122.44 327.98 122.98 306.6 123.54 291.17C123.82 283.44 124.08 277.17 124.3 272.86C124.41 270.72 124.5 269.05 124.56 267.86C124.56 267.31 124.62 266.86 124.64 266.56C124.623 266.417 124.616 266.274 124.62 266.13Z" fill="#455A64"/>
<path d="M155 270.68C155.061 270.813 155.111 270.95 155.15 271.09C155.24 271.39 155.37 271.79 155.53 272.31C155.85 273.38 156.36 274.96 156.92 277.02C158.07 281.13 159.62 287.1 161.35 294.53C163.08 301.96 165 310.82 167 320.7C169 330.58 171.11 341.46 173 352.94C173.24 354.38 173.46 355.81 173.65 357.24C173.65 357.62 173.72 358.01 173.72 358.38L173.54 359.44C173.41 360.15 173.31 360.86 173.15 361.55C172.58 364.33 171.94 367.05 171.25 369.71C169.89 375.03 168.45 380.12 167.03 384.96C164.21 394.64 161.49 403.3 159.18 410.57C156.87 417.84 154.94 423.69 153.58 427.73L152 432.38L151.57 433.59C151.533 433.729 151.479 433.863 151.41 433.99C151.436 433.847 151.473 433.707 151.52 433.57C151.62 433.27 151.74 432.87 151.9 432.35L153.39 427.67L158.83 410.46C161.09 403.18 163.77 394.51 166.57 384.83C167.97 379.99 169.4 374.89 170.76 369.58C171.44 366.93 172.08 364.22 172.65 361.45C172.81 360.76 172.9 360.06 173.02 359.36L173.2 358.31C173.2 357.97 173.15 357.64 173.13 357.31C172.94 355.9 172.73 354.47 172.49 353.04C170.59 341.57 168.49 330.69 166.49 320.81C164.49 310.93 162.68 302 161 294.61C159.32 287.22 157.81 281.19 156.72 277.07C156.2 275.01 155.72 273.42 155.43 272.34L155.1 271.11C155.051 270.971 155.017 270.827 155 270.68Z" fill="#455A64"/>
<path d="M138.91 407.33C138.991 407.795 139.021 408.268 139 408.74C139 409.74 139 411.05 139.05 412.6C139.05 415.95 139.17 420.4 139.24 425.31C139.31 430.22 139.5 434.67 139.59 438.02C139.59 439.57 139.67 440.87 139.7 441.88C139.745 442.349 139.745 442.821 139.7 443.29C139.59 442.831 139.529 442.362 139.52 441.89C139.44 440.98 139.35 439.67 139.25 438.04C139.05 434.79 138.86 430.29 138.75 425.32C138.64 420.35 138.66 415.85 138.75 412.6C138.75 410.97 138.82 409.6 138.86 408.74C138.84 408.269 138.856 407.798 138.91 407.33Z" fill="#455A64"/>
<path d="M162.28 268.63L140.06 266.92L106.4 264.19L110.16 445L139.39 444.62C139.39 444.62 139.39 442.62 139.32 439.08L156.46 443.77C156.46 443.77 173.16 387.35 178.85 364.2C183.6 344.91 162.28 268.63 162.28 268.63ZM139 411C138.56 369.26 138.05 298.28 138.66 289.6C138.66 289.6 154.94 352.09 155.09 357.02C155.19 360 146.12 388.84 139 411Z" fill="#263238"/>
<path d="M139.55 437.77C139.55 437.93 133.01 438.06 124.95 438.06C116.89 438.06 110.34 437.93 110.34 437.77C110.34 437.61 116.88 437.48 124.95 437.48C133.02 437.48 139.55 437.61 139.55 437.77Z" fill="#455A64"/>
<path d="M139.29 431.27C140.204 431.487 141.1 431.774 141.97 432.13L148.66 434.46L155.35 436.8C156.296 437.071 157.214 437.432 158.09 437.88C157.113 437.744 156.152 437.513 155.22 437.19C153.48 436.68 151.09 435.92 148.47 435.01C145.85 434.1 143.47 433.2 141.83 432.51C140.93 432.216 140.075 431.799 139.29 431.27Z" fill="#455A64"/>
<path d="M166.07 356.46C164.262 356.881 162.416 357.116 160.56 357.16C158.719 357.395 156.86 357.439 155.01 357.29C156.817 356.861 158.664 356.623 160.52 356.58C162.361 356.345 164.221 356.305 166.07 356.46Z" fill="#455A64"/>
<path d="M164.16 359.74C162.722 359.619 161.307 359.309 159.95 358.82C158.538 358.512 157.172 358.017 155.89 357.35C157.332 357.459 158.751 357.766 160.11 358.26C162.39 358.92 164.21 359.58 164.16 359.74Z" fill="#455A64"/>
<path d="M141.35 267.15C141.484 268.291 141.534 269.441 141.5 270.59C141.5 272.72 141.5 275.66 141.5 278.91C141.5 280.52 141.5 282.06 141.44 283.48C141.477 284.759 141.238 286.031 140.74 287.21C140.385 288.013 139.818 288.705 139.1 289.21C138.855 289.413 138.563 289.551 138.25 289.61C138.25 289.61 138.53 289.43 138.98 289.05C139.611 288.509 140.102 287.823 140.41 287.05C140.827 285.904 141.014 284.688 140.96 283.47C140.96 282.04 140.96 280.47 140.96 278.89C140.96 275.64 141.04 272.7 141.1 270.58C141.097 269.432 141.18 268.285 141.35 267.15Z" fill="#455A64"/>
<path d="M124.62 266.13C124.631 266.276 124.631 266.424 124.62 266.57C124.62 266.89 124.62 267.32 124.62 267.87C124.62 269.03 124.53 270.71 124.46 272.87C124.32 277.22 124.12 283.47 123.87 291.18C123.4 306.64 122.92 328.01 122.8 351.6C122.68 375.19 122.95 396.6 123.26 412.05C123.43 419.76 123.56 426.05 123.66 430.36C123.66 432.51 123.74 434.18 123.77 435.36C123.77 435.91 123.77 436.36 123.77 436.66C123.781 436.806 123.781 436.954 123.77 437.1C123.759 436.954 123.759 436.806 123.77 436.66C123.77 436.35 123.77 435.92 123.7 435.37C123.7 434.2 123.59 432.53 123.5 430.37C123.33 426.05 123.13 419.79 122.93 412.06C122.52 396.59 122.2 375.22 122.32 351.6C122.44 327.98 122.98 306.6 123.54 291.17C123.82 283.44 124.08 277.17 124.3 272.86C124.41 270.72 124.5 269.05 124.56 267.86C124.56 267.31 124.62 266.86 124.64 266.56C124.623 266.417 124.616 266.274 124.62 266.13Z" fill="#455A64"/>
<path d="M155 270.68C155.061 270.813 155.111 270.95 155.15 271.09C155.24 271.39 155.37 271.79 155.53 272.31C155.85 273.38 156.36 274.96 156.92 277.02C158.07 281.13 159.62 287.1 161.35 294.53C163.08 301.96 165 310.82 167 320.7C169 330.58 171.11 341.46 173 352.94C173.24 354.38 173.46 355.81 173.65 357.24C173.65 357.62 173.72 358.01 173.72 358.38L173.54 359.44C173.41 360.15 173.31 360.86 173.15 361.55C172.58 364.33 171.94 367.05 171.25 369.71C169.89 375.03 168.45 380.12 167.03 384.96C164.21 394.64 161.49 403.3 159.18 410.57C156.87 417.84 154.94 423.69 153.58 427.73L152 432.38L151.57 433.59C151.533 433.729 151.479 433.863 151.41 433.99C151.436 433.847 151.473 433.707 151.52 433.57C151.62 433.27 151.74 432.87 151.9 432.35L153.39 427.67L158.83 410.46C161.09 403.18 163.77 394.51 166.57 384.83C167.97 379.99 169.4 374.89 170.76 369.58C171.44 366.93 172.08 364.22 172.65 361.45C172.81 360.76 172.9 360.06 173.02 359.36L173.2 358.31C173.2 357.97 173.15 357.64 173.13 357.31C172.94 355.9 172.73 354.47 172.49 353.04C170.59 341.57 168.49 330.69 166.49 320.81C164.49 310.93 162.68 302 161 294.61C159.32 287.22 157.81 281.19 156.72 277.07C156.2 275.01 155.72 273.42 155.43 272.34L155.1 271.11C155.051 270.971 155.017 270.827 155 270.68Z" fill="#455A64"/>
<path d="M138.91 407.33C138.991 407.795 139.021 408.268 139 408.74C139 409.74 139 411.05 139.05 412.6C139.05 415.95 139.17 420.4 139.24 425.31C139.31 430.22 139.5 434.67 139.59 438.02C139.59 439.57 139.67 440.87 139.7 441.88C139.745 442.349 139.745 442.821 139.7 443.29C139.59 442.831 139.529 442.362 139.52 441.89C139.44 440.98 139.35 439.67 139.25 438.04C139.05 434.79 138.86 430.29 138.75 425.32C138.64 420.35 138.66 415.85 138.75 412.6C138.75 410.97 138.82 409.6 138.86 408.74C138.84 408.269 138.856 407.798 138.91 407.33Z" fill="#455A64"/>
<path d="M124 181.85L141 183.11C141.23 181.11 141.56 173.5 141.56 173.5C141.56 173.5 148.65 172.85 149.17 165.83C149.69 158.81 149.47 142.6 149.47 142.6C145.583 140.636 141.242 139.745 136.896 140.021C132.55 140.297 128.357 141.73 124.75 144.17L123.66 144.91L124 181.85Z" fill="#E5BAAB"/>
<path d="M147.05 154.57C146.915 154.428 146.825 154.25 146.791 154.057C146.756 153.865 146.779 153.666 146.856 153.487C146.933 153.307 147.061 153.154 147.225 153.046C147.388 152.939 147.579 152.881 147.775 152.881C147.971 152.881 148.162 152.939 148.325 153.046C148.489 153.154 148.617 153.307 148.694 153.487C148.771 153.666 148.794 153.865 148.759 154.057C148.725 154.25 148.635 154.428 148.5 154.57C148.407 154.668 148.294 154.747 148.169 154.8C148.045 154.854 147.911 154.881 147.775 154.881C147.639 154.881 147.505 154.854 147.38 154.8C147.256 154.747 147.143 154.668 147.05 154.57Z" fill="#263238"/>
<path d="M148.85 153.07C148.73 153.19 148.08 152.62 147.11 152.55C146.14 152.48 145.41 152.94 145.31 152.81C145.21 152.68 145.38 152.54 145.71 152.33C146.135 152.051 146.643 151.924 147.15 151.97C147.661 152 148.147 152.201 148.53 152.54C148.82 152.79 148.91 153 148.85 153.07Z" fill="#263238"/>
<path d="M137.65 153.23C137.808 153.346 137.929 153.505 137.998 153.689C138.066 153.873 138.079 154.073 138.034 154.264C137.99 154.455 137.89 154.629 137.748 154.763C137.606 154.898 137.427 154.988 137.234 155.022C137.04 155.056 136.842 155.033 136.662 154.955C136.482 154.877 136.329 154.747 136.222 154.583C136.115 154.419 136.059 154.226 136.06 154.03C136.062 153.834 136.121 153.643 136.23 153.48C136.305 153.368 136.402 153.273 136.515 153.199C136.628 153.126 136.754 153.076 136.887 153.053C137.019 153.029 137.155 153.033 137.286 153.063C137.418 153.094 137.541 153.151 137.65 153.23Z" fill="#263238"/>
<path d="M138.29 153.28C138.17 153.39 137.52 152.82 136.55 152.75C135.58 152.68 134.85 153.15 134.75 153.02C134.65 152.89 134.82 152.74 135.14 152.53C135.574 152.261 136.081 152.135 136.59 152.17C137.099 152.207 137.583 152.407 137.97 152.74C138.26 153 138.35 153.23 138.29 153.28Z" fill="#263238"/>
<path d="M141.68 161.5C142.192 161.342 142.725 161.264 143.26 161.27C143.52 161.27 143.73 161.22 143.76 161.08C143.785 160.822 143.737 160.562 143.62 160.33L142.98 158.33C142.364 156.62 141.912 154.855 141.63 153.06C142.405 154.702 143.024 156.413 143.48 158.17L144.08 160.17C144.224 160.501 144.253 160.871 144.16 161.22C144.118 161.314 144.054 161.396 143.974 161.46C143.894 161.525 143.8 161.569 143.7 161.59C143.557 161.609 143.413 161.609 143.27 161.59C142.739 161.645 142.202 161.615 141.68 161.5Z" fill="#263238"/>
<path d="M138.47 162.37C137.47 161.71 141.15 164.02 143.13 164.05C142.77 164.537 142.256 164.888 141.671 165.044C141.086 165.2 140.465 165.153 139.91 164.91C137.85 164 138.47 162.37 138.47 162.37Z" fill="white"/>
<path d="M141.52 173.4C138.273 173.263 135.14 172.163 132.52 170.24C132.52 170.24 134.37 175.43 141.42 175.24L141.52 173.4Z" fill="#D78776"/>
<path d="M125 151.14C124.84 151.08 119.78 150.42 120.26 156.4C120.74 162.38 126.62 159.91 126.61 159.74C126.6 159.57 125 151.14 125 151.14Z" fill="#E5BAAB"/>
<path d="M124.56 157.79C124.56 157.79 124.47 157.87 124.3 157.97C124.059 158.093 123.781 158.122 123.52 158.05C123.115 157.834 122.774 157.515 122.532 157.125C122.29 156.735 122.155 156.289 122.14 155.83C122.085 155.32 122.146 154.803 122.32 154.32C122.36 154.129 122.445 153.95 122.569 153.798C122.693 153.647 122.851 153.528 123.03 153.45C123.148 153.412 123.276 153.415 123.392 153.459C123.508 153.502 123.606 153.584 123.67 153.69C123.76 153.85 123.74 153.97 123.77 153.98C123.8 153.99 123.89 153.87 123.77 153.63C123.728 153.483 123.636 153.356 123.51 153.27C123.333 153.164 123.122 153.129 122.92 153.17C122.682 153.237 122.465 153.365 122.29 153.54C122.115 153.715 121.987 153.932 121.92 154.17C121.704 154.706 121.625 155.286 121.69 155.86C121.701 156.394 121.87 156.913 122.177 157.351C122.483 157.789 122.912 158.126 123.41 158.32C123.574 158.354 123.743 158.352 123.906 158.312C124.069 158.272 124.22 158.196 124.35 158.09C124.56 157.94 124.59 157.8 124.56 157.79Z" fill="#D78776"/>
<path d="M149.92 140.07C150.325 140.059 150.722 139.955 151.08 139.767C151.438 139.578 151.748 139.309 151.986 138.982C152.224 138.654 152.383 138.276 152.451 137.877C152.52 137.478 152.496 137.069 152.38 136.68C152.265 136.292 152.063 135.936 151.788 135.638C151.513 135.341 151.173 135.111 150.795 134.966C150.417 134.821 150.011 134.765 149.608 134.802C149.204 134.839 148.815 134.968 148.47 135.18C149.306 134.486 149.988 133.624 150.47 132.65C150.703 132.159 150.78 131.608 150.691 131.071C150.602 130.535 150.35 130.039 149.97 129.65C149.53 129.359 149.021 129.189 148.494 129.157C147.967 129.126 147.442 129.234 146.97 129.47C145.48 130.11 144.3 131.37 142.77 131.9C141.24 132.43 139.53 132.17 137.89 132.24C136.05 132.273 134.267 132.889 132.8 134C131.55 134.982 130.74 136.421 130.55 138C130.353 137.73 130.136 137.476 129.9 137.24C129.122 136.312 128.073 135.651 126.9 135.35C126.83 135.48 128.2 136.24 129.51 137.6C129.867 137.941 130.201 138.305 130.51 138.69C128.23 138.41 125.72 138.39 123.92 139.81C123.191 140.46 122.614 141.263 122.232 142.162C121.85 143.061 121.672 144.034 121.71 145.01C121.71 146.95 122.51 148.8 123.08 150.66C123.218 151.187 123.455 151.683 123.78 152.12L124.64 157.12L127.77 157.06L127.57 146.57C127.57 146.57 127.25 142.15 131.05 142.57C134.85 142.99 140.05 147.24 147.43 146.16C148.641 146.092 149.821 145.751 150.88 145.16C151.393 144.835 151.81 144.379 152.087 143.84C152.365 143.3 152.494 142.696 152.46 142.09C152.387 141.487 152.08 140.937 151.604 140.559C151.129 140.181 150.524 140.005 149.92 140.07Z" fill="#263238"/>
<path d="M213.52 191.84L213.98 188.66C214.45 186.92 214.745 185.138 214.86 183.34C214.935 182.446 214.854 181.546 214.62 180.68C214.384 179.59 213.994 178.539 213.46 177.56C212.88 176.71 213.64 175.56 214.46 175.91C215.28 176.26 216.99 178.52 217.54 181.78C218.09 185.04 220.66 180.52 221.62 178.89C222.58 177.26 225.81 172.35 226.55 172.25C227.63 172.1 227.99 173.25 226.98 174.84C225.97 176.43 223.31 181.48 224.2 181.94C224.866 181.834 225.548 181.868 226.2 182.04C226.305 182.071 226.398 182.134 226.466 182.22C226.534 182.306 226.574 182.411 226.58 182.52C226.576 183.024 226.63 183.528 226.74 184.02C226.74 184.02 228.05 183.72 228.32 184.29C228.503 184.875 228.587 185.487 228.57 186.1C228.57 186.1 229.57 185.76 230.05 186.1C231.05 186.91 229.77 188.3 229.77 188.3C226.825 191.812 223.663 195.136 220.3 198.25L213.41 191.61" fill="#E5BAAB"/>
<path d="M226.34 184.24C226.046 184.858 225.65 185.423 225.17 185.91C224.77 186.39 224.27 186.91 223.68 187.54C223.372 187.867 223.038 188.168 222.68 188.44C222.46 188.615 222.194 188.723 221.913 188.752C221.633 188.78 221.351 188.727 221.1 188.6C220.963 188.52 220.847 188.408 220.762 188.274C220.677 188.14 220.625 187.988 220.61 187.83C220.59 187.548 220.652 187.267 220.79 187.02C221.036 186.649 221.304 186.291 221.59 185.95C222.1 185.31 222.52 184.71 222.87 184.19C223.206 183.602 223.59 183.043 224.02 182.52C223.853 183.185 223.569 183.815 223.18 184.38C222.817 185.023 222.416 185.644 221.98 186.24C221.714 186.559 221.467 186.893 221.24 187.24C221.06 187.57 221.07 187.98 221.36 188.13C221.523 188.199 221.702 188.223 221.878 188.2C222.053 188.177 222.22 188.108 222.36 188C222.692 187.749 223.006 187.475 223.3 187.18C223.9 186.62 224.42 186.09 224.85 185.64C225.298 185.124 225.797 184.655 226.34 184.24Z" fill="#D78776"/>
<path d="M228.09 186.29C227.796 186.824 227.418 187.307 226.97 187.72C226.518 188.204 226.027 188.649 225.5 189.05C225.184 189.289 224.85 189.503 224.5 189.69C224.292 189.794 224.07 189.865 223.84 189.9C223.701 189.923 223.559 189.916 223.423 189.879C223.286 189.843 223.159 189.779 223.05 189.69C222.865 189.499 222.749 189.253 222.718 188.989C222.687 188.725 222.744 188.458 222.88 188.23C223.082 187.874 223.32 187.539 223.59 187.23C224.03 186.72 224.44 186.23 224.85 185.74C225.58 184.9 226.06 184.41 226.12 184.45C225.856 184.999 225.52 185.51 225.12 185.97L224 187.56C223.764 187.843 223.55 188.144 223.36 188.46C223.283 188.588 223.247 188.736 223.258 188.885C223.269 189.033 223.325 189.175 223.42 189.29C223.6 189.46 223.98 189.39 224.31 189.23C224.638 189.06 224.956 188.87 225.26 188.66C225.78 188.289 226.277 187.889 226.75 187.46C227.147 187.017 227.597 186.624 228.09 186.29Z" fill="#D78776"/>
<path d="M228.5 189.15C228.55 189.15 228.5 189.6 228.03 190.15C227.887 190.32 227.712 190.46 227.515 190.562C227.317 190.663 227.101 190.724 226.88 190.74C226.594 190.742 226.315 190.647 226.09 190.47C225.966 190.366 225.867 190.236 225.799 190.089C225.732 189.942 225.698 189.782 225.7 189.62C225.779 189.11 225.986 188.629 226.3 188.22C226.511 187.89 226.741 187.573 226.99 187.27C227.42 186.75 227.73 186.48 227.79 186.53C227.85 186.58 227.63 186.92 227.29 187.53C227.09 187.88 226.89 188.2 226.71 188.53C226.469 188.883 226.302 189.281 226.22 189.7C226.228 189.87 226.301 190.03 226.424 190.147C226.547 190.265 226.71 190.33 226.88 190.33C227.212 190.319 227.528 190.188 227.77 189.96C228.22 189.48 228.43 189.11 228.5 189.15Z" fill="#D78776"/>
<path d="M212.77 187.71C212.77 187.71 186.54 213.52 182.86 213.71C178.66 213.91 165.74 195.59 165.74 195.59C157.47 182.83 146.56 180.77 142.58 180.45V178.87L123.03 177.27C123.03 177.27 123.03 178.95 123.03 180.42H114.4C114.4 180.42 98.9 179.71 96.58 200.53L107.72 209.34L112.29 226.34C113.88 232.26 108.2 241.69 105.49 256.96C105.072 259.506 105.497 262.118 106.7 264.4L163.15 270.89L160.15 227.73L159.24 217.73C163.89 224.08 172.24 233.06 182.47 232.86C199.92 232.53 224.16 195.86 224.16 195.86L212.77 187.71Z" fill="#E0E0E0"/>
<path d="M136 178.59C136.097 179.477 136.097 180.373 136 181.26C135.854 183.482 135.553 185.69 135.1 187.87L135.03 188.2L134.73 188.04C134.05 187.68 133.34 187.3 132.62 186.88C129.82 185.23 127.43 183.53 125.62 182.35C124.643 181.755 123.701 181.104 122.8 180.4C123.099 180.487 123.385 180.615 123.65 180.78C124.17 181.07 124.92 181.49 125.82 182.04C127.64 183.14 130.06 184.8 132.82 186.43C133.52 186.84 134.22 187.23 134.9 187.59L134.53 187.76C135.11 185.18 135.39 182.87 135.6 181.23C135.68 180.343 135.813 179.461 136 178.59Z" fill="#FAFAFA"/>
<path d="M142.64 180.56C142.514 181.419 142.327 182.268 142.08 183.1C141.89 183.89 141.69 184.83 141.35 185.85C141.173 186.389 140.963 186.917 140.72 187.43C140.65 187.614 140.524 187.771 140.36 187.88C140.246 187.95 140.112 187.979 139.979 187.963C139.847 187.946 139.724 187.885 139.63 187.79C139.443 187.514 139.291 187.215 139.18 186.9C138.18 184.63 137.39 182.57 136.81 181.06C136.445 180.269 136.167 179.441 135.98 178.59C136.447 179.325 136.839 180.106 137.15 180.92C137.82 182.39 138.71 184.43 139.66 186.7C139.752 186.953 139.866 187.197 140 187.43C140.05 187.43 140 187.43 140.09 187.43C140.165 187.369 140.224 187.29 140.26 187.2C140.499 186.708 140.713 186.204 140.9 185.69C141.25 184.69 141.49 183.77 141.72 183C141.919 182.15 142.228 181.33 142.64 180.56Z" fill="#FAFAFA"/>
<path d="M139 250.4C138.952 250.166 138.925 249.929 138.92 249.69C138.92 249.17 138.88 248.503 138.8 247.69C138.72 245.85 138.6 243.3 138.46 240.17C138.22 233.77 137.88 225.02 137.52 215.36C137.16 205.7 136.93 196.95 136.73 190.55C136.66 187.41 136.6 184.86 136.55 183.02C136.55 182.18 136.55 181.5 136.55 181.02C136.524 180.781 136.524 180.539 136.55 180.3C136.596 180.534 136.62 180.772 136.62 181.01C136.62 181.53 136.7 182.21 136.75 183.01C136.83 184.84 136.95 187.39 137.09 190.52C137.33 196.92 137.66 205.67 138.03 215.33C138.4 224.99 138.61 233.74 138.82 240.15C138.89 243.28 138.95 245.83 139 247.67C139 248.52 139 249.2 139 249.72C139.024 249.946 139.024 250.174 139 250.4Z" fill="#F5F5F5"/>
<path d="M135.44 184.91L137.08 189.43L138.49 184.58L136.3 179.72L135.44 184.91Z" fill="#FF725E"/>
<path d="M137.38 188.08L136.3 238.96L143.98 255.02L147.01 236.95L137.38 188.08Z" fill="#FF725E"/>
<path d="M183.14 220C183.14 220 183.14 220.15 183.14 220.4L183.08 220.78L182.91 220.4C182.523 219.389 182.3 218.322 182.25 217.24C182.085 216.034 182.229 214.805 182.67 213.67C182.82 213.67 182.67 215.27 182.77 217.21C182.85 218.59 183.07 219.77 183.14 220.34H182.91C183 220.07 183.1 220 183.14 220Z" fill="#FAFAFA"/>
<path d="M185.39 219.83C184.644 219.047 184.09 218.103 183.77 217.07C183.289 216.116 183.026 215.068 183 214C183.509 214.93 183.924 215.908 184.24 216.92C184.717 217.85 185.102 218.825 185.39 219.83Z" fill="#FAFAFA"/>
<path d="M222.52 198.29C220.357 197.146 218.279 195.849 216.3 194.41C214.227 193.116 212.248 191.676 210.38 190.1C212.542 191.253 214.62 192.556 216.6 194C218.673 195.288 220.651 196.721 222.52 198.29Z" fill="#FAFAFA"/>
<path d="M113.49 206.46C113.49 206.46 109.33 235.46 111.3 237.08C122.18 246.23 137.3 251.03 142.7 252.54C143.49 252.35 144.41 252.1 145.47 251.76C146.389 251.468 147.251 251.022 148.02 250.44C149.002 249.751 149.883 248.93 150.64 248C150.754 247.8 150.928 247.641 151.136 247.544C151.345 247.448 151.579 247.418 151.805 247.46C152.031 247.502 152.238 247.613 152.399 247.777C152.559 247.942 152.664 248.153 152.7 248.38C152.75 249.38 151.15 251.95 148.14 253.83C148.14 253.83 155.07 264.98 157.28 265.99C159.49 267 165.81 269.84 164.74 270.38C163.67 270.92 155.98 268.69 155.98 268.69L140.38 264.52C140.38 264.52 88.78 256.43 92.21 232.76C94.32 218.25 96.62 205.18 97.45 201.87L113.49 206.46Z" fill="#E5BAAB"/>
<path d="M96.58 200.52L92 232.13C90.93 241.86 97.45 249.59 106.22 253.94C119.57 260.55 139.39 265.27 139.22 265.24C139.05 265.21 140.56 251.13 140.56 251.13C140.56 251.13 112.77 239.13 111.9 233.93C111.03 228.73 115.43 207.13 115.43 207.13L96.58 200.52Z" fill="#E0E0E0"/>
<path d="M139.18 265.24C139.17 265.157 139.17 265.073 139.18 264.99C139.18 264.79 139.18 264.55 139.23 264.26C139.28 263.57 139.35 262.64 139.45 261.45C139.66 258.97 139.97 255.45 140.34 251.12L140.45 251.3L126.45 244.53L122.45 242.53C121.1 241.81 119.74 241.02 118.39 240.15C117.02 239.266 115.705 238.301 114.45 237.26C113.82 236.73 113.19 236.17 112.59 235.58C112.252 235.283 111.979 234.919 111.79 234.51C111.684 234.312 111.607 234.1 111.56 233.88C111.494 233.671 111.447 233.457 111.42 233.24C110.97 229.78 111.89 226.52 112.42 223.41C112.95 220.3 113.48 217.27 113.98 214.41C114.98 208.67 115.89 203.51 116.65 199.15C117.06 197.219 117.295 195.254 117.35 193.28C117.369 191.795 117.062 190.323 116.45 188.97C116.057 188.116 115.5 187.348 114.81 186.71C114.33 186.28 114.04 186.11 114.05 186.08C114.347 186.23 114.626 186.414 114.88 186.63C115.614 187.249 116.21 188.016 116.63 188.88C117.286 190.254 117.628 191.757 117.63 193.28C117.608 195.272 117.397 197.258 117 199.21C116.27 203.58 115.4 208.75 114.44 214.5C113.95 217.37 113.44 220.39 112.91 223.5C112.78 224.28 112.64 225.07 112.5 225.87C112.36 226.67 112.21 227.45 112.1 228.25C111.837 229.867 111.793 231.512 111.97 233.14C112.002 233.339 112.045 233.536 112.1 233.73C112.139 233.922 112.207 234.107 112.3 234.28C112.465 234.633 112.703 234.947 113 235.2C113.59 235.78 114.2 236.33 114.82 236.85C116.058 237.881 117.357 238.836 118.71 239.71C120.04 240.58 121.38 241.36 122.71 242.08L126.71 244.08L140.6 251L140.71 251.06V251.18C140.26 255.51 139.9 259.02 139.65 261.5C139.51 262.68 139.41 263.62 139.33 264.3C139.29 264.593 139.26 264.833 139.24 265.02C139.227 265.095 139.207 265.169 139.18 265.24Z" fill="#FAFAFA"/>
<path d="M136.6 249.2C136.63 249.924 136.573 250.649 136.43 251.36C136.26 252.68 135.98 254.5 135.61 256.5C135.24 258.5 134.82 260.3 134.48 261.59C134.343 262.301 134.111 262.991 133.79 263.64C133.825 262.917 133.935 262.2 134.12 261.5C134.413 259.993 134.747 258.293 135.12 256.4C135.47 253.973 135.964 251.568 136.6 249.2Z" fill="#FAFAFA"/>
<path d="M139.18 265.24C139.013 265.239 138.848 265.212 138.69 265.16L137.32 264.83L132.32 263.51C128.09 262.37 122.21 260.87 115.91 258.56C112.945 257.476 110.059 256.189 107.27 254.71C104.992 253.498 102.818 252.1 100.77 250.53C99.3883 249.472 98.0849 248.316 96.87 247.07C96.44 246.63 96.13 246.28 95.87 246.07C95.7509 245.952 95.6499 245.817 95.57 245.67C95.57 245.67 96.07 246.14 96.97 246.97C98.2378 248.15 99.5734 249.255 100.97 250.28C103.038 251.767 105.21 253.104 107.47 254.28C110.252 255.725 113.124 256.988 116.07 258.06C122.33 260.36 128.2 261.91 132.4 263.15L137.4 264.62L138.75 265.05C138.901 265.095 139.045 265.158 139.18 265.24Z" fill="#FAFAFA"/>
<path d="M139.52 252.58C139.526 252.759 139.479 252.935 139.384 253.087C139.289 253.238 139.151 253.358 138.988 253.432C138.825 253.505 138.643 253.527 138.467 253.497C138.291 253.466 138.128 253.384 137.999 253.26C137.869 253.137 137.78 252.978 137.741 252.803C137.703 252.628 137.718 252.446 137.783 252.28C137.849 252.113 137.963 251.97 138.11 251.869C138.257 251.767 138.431 251.712 138.61 251.71C138.845 251.707 139.072 251.797 139.242 251.959C139.413 252.122 139.512 252.345 139.52 252.58Z" fill="#FAFAFA"/>
</g>
<defs>
<filter id="filter0_d_66_105" x="-20" y="-20" width="540" height="540" filterUnits="userSpaceOnUse" color-interpolation-filters="sRGB">
<feFlood flood-opacity="0" result="BackgroundImageFix"/>
<feColorMatrix in="SourceAlpha" type="matrix" values="0 0 0 0 0 0 0 0 0 0 0 0 0 0 0 0 0 0 127 0" result="hardAlpha"/>
<feOffset/>
<feGaussianBlur stdDeviation="10"/>
<feColorMatrix type="matrix" values="0 0 0 0 0.901961 0 0 0 0 0.403922 0 0 0 0 0.333333 0 0 0 1 0"/>
<feBlend mode="normal" in2="BackgroundImageFix" result="effect1_dropShadow_66_105"/>
<feBlend mode="normal" in="SourceGraphic" in2="effect1_dropShadow_66_105" result="shape"/>
</filter>
</defs>
</svg>
