<svg width="500" height="500" viewBox="0 0 500 500" fill="none" xmlns="http://www.w3.org/2000/svg">
<g filter="url(#filter0_d_66_399)">
<path d="M216.42 117.99H96.86V382.4H216.42V117.99Z" fill="#F0F0F0"/>
<path d="M216.42 117.99H102.53V382.4H216.42V117.99Z" fill="#F5F5F5"/>
<path d="M210.41 376.39L210.41 123.98H108.52L108.52 376.39H210.41Z" fill="#F0F0F0"/>
<path d="M188.24 246.17H196.7C197.822 246.165 198.896 245.716 199.689 244.922C200.481 244.127 200.927 243.052 200.93 241.93C200.927 240.808 200.481 239.733 199.689 238.938C198.896 238.144 197.822 237.695 196.7 237.69H188.24C187.117 237.695 186.042 238.144 185.248 238.938C184.454 239.732 184.005 240.807 184 241.93C184.005 243.053 184.454 244.128 185.248 244.922C186.042 245.716 187.117 246.165 188.24 246.17Z" fill="white"/>
<path d="M210.42 376.4L210.42 123.99H208.86L208.86 376.4H210.42Z" fill="#F0F0F0"/>
<path d="M311.71 268.78H284.53V377.79H311.71V268.78Z" fill="#F0F0F0"/>
<path d="M423.77 377.79H289.74V382.4H423.77V377.79Z" fill="#F0F0F0"/>
<path d="M311.71 377.79H429V268.78H311.71V377.79Z" fill="#F5F5F5"/>
<path d="M322.39 301.57H418.31V277.73H322.39V301.57Z" fill="#F0F0F0"/>
<path d="M322.39 368.85H418.31V308.69H322.39V368.85Z" fill="#F0F0F0"/>
<path d="M382.46 288.01H358.24C357.516 288.01 356.93 288.597 356.93 289.32V289.97C356.93 290.693 357.516 291.28 358.24 291.28H382.46C383.183 291.28 383.77 290.693 383.77 289.97V289.32C383.77 288.597 383.183 288.01 382.46 288.01Z" fill="#F5F5F5"/>
<path d="M382.46 335.92H358.24C357.516 335.92 356.93 336.507 356.93 337.23V337.88C356.93 338.603 357.516 339.19 358.24 339.19H382.46C383.183 339.19 383.77 338.603 383.77 337.88V337.23C383.77 336.507 383.183 335.92 382.46 335.92Z" fill="#F5F5F5"/>
<path d="M428.74 129.11H390.39V201.41H428.74V129.11Z" fill="#E6E6E6"/>
<path d="M437.33 129.11H392.29V201.41H437.33V129.11Z" fill="#F5F5F5"/>
<path d="M430.48 194.97V135.52H399.15V194.97H430.48Z" fill="white"/>
<path d="M365.31 107.97H326.96V180.27H365.31V107.97Z" fill="#E6E6E6"/>
<path d="M373.89 107.97H328.85V180.27H373.89V107.97Z" fill="#F5F5F5"/>
<path d="M367.04 173.84V114.39H335.71V173.84H367.04Z" fill="white"/>
<path d="M307.23 154.69H268.88V226.99H307.23V154.69Z" fill="#E6E6E6"/>
<path d="M315.83 154.69H270.78V226.99H315.83V154.69Z" fill="#F5F5F5"/>
<path d="M308.97 220.55V161.1H277.64V220.55H308.97Z" fill="white"/>
<path d="M298.82 145.11H117.49C114.789 145.11 112.6 147.299 112.6 150V279.33C112.6 282.031 114.789 284.22 117.49 284.22H298.82C301.521 284.22 303.71 282.031 303.71 279.33V150C303.71 147.299 301.521 145.11 298.82 145.11Z" fill="#263238"/>
<path d="M209.77 138.81H206.55C205.904 138.81 205.38 139.334 205.38 139.98V412.29C205.38 412.936 205.904 413.46 206.55 413.46H209.77C210.416 413.46 210.94 412.936 210.94 412.29V139.98C210.94 139.334 210.416 138.81 209.77 138.81Z" fill="#263238"/>
<path d="M202.2 407.9H214.1C215.336 407.9 216.521 408.391 217.395 409.265C218.269 410.139 218.76 411.324 218.76 412.56V413.13C218.76 413.218 218.725 413.301 218.663 413.363C218.601 413.425 218.518 413.46 218.43 413.46H197.87C197.782 413.46 197.699 413.425 197.637 413.363C197.575 413.301 197.54 413.218 197.54 413.13V412.56C197.54 411.324 198.031 410.139 198.905 409.265C199.779 408.391 200.964 407.9 202.2 407.9Z" fill="#263238"/>
<path d="M277.15 141.61H261.15V142.61H277.15V141.61Z" fill="#FFC727"/>
<path d="M251.6 141.61H246.71V142.61H251.6V141.61Z" fill="#FFC727"/>
<path d="M299.53 145.11H118.2C115.499 145.11 113.31 147.299 113.31 150V279.33C113.31 282.031 115.499 284.22 118.2 284.22H299.53C302.231 284.22 304.42 282.031 304.42 279.33V150C304.42 147.299 302.231 145.11 299.53 145.11Z" fill="#FFC727"/>
<path opacity="0.7" d="M299.42 275V154.33C299.42 151.999 297.531 150.11 295.2 150.11H122.53C120.199 150.11 118.31 151.999 118.31 154.33V275C118.31 277.331 120.199 279.22 122.53 279.22H295.2C297.531 279.22 299.42 277.331 299.42 275Z" fill="white"/>
<path opacity="0.2" d="M171 213C159.34 211.908 147.631 211.414 135.92 211.52C136.03 195.62 137.45 178.43 138.7 161.52L173.08 163.73C171.75 183.46 170.43 203.25 171 213Z" fill="black"/>
<path d="M171.66 212.29C160 211.193 148.291 210.699 136.58 210.81C136.69 194.9 137.42 178.44 138.67 161.52L173.75 163C172.44 182.73 171.12 202.53 171.66 212.29Z" fill="white"/>
<path opacity="0.2" d="M217.7 246.87L182.63 248.4L181.17 198.39L215.56 197.58L217.7 246.87Z" fill="black"/>
<path d="M216.24 196.881L181.163 198.406L183.306 247.69L218.383 246.165L216.24 196.881Z" fill="white"/>
<path opacity="0.2" d="M295.89 245.68L261.08 241.09L268.34 191.59L302.34 196.77L295.89 245.68Z" fill="black"/>
<path d="M303.133 196.196L268.325 191.602L261.869 240.507L296.677 245.102L303.133 196.196Z" fill="white"/>
<path opacity="0.2" d="M176.22 281.84C169.86 283.84 153.48 284.15 141.22 283.54C139.47 268.14 139.65 250.9 140.09 233.54L174.48 232.97C173.72 244.89 174.31 266.1 176.22 281.84Z" fill="black"/>
<path d="M176.92 281.12C170.55 283.12 154.17 283.42 141.92 282.81C140.183 266.438 139.575 249.966 140.1 233.51L175.18 232.21C174.41 244.17 175 265.38 176.92 281.12Z" fill="white"/>
<path opacity="0.2" d="M262.47 208L227.37 208.77C226.19 192.35 226.53 175.18 226.98 158.77H261.39C261 176.22 261.26 192.87 262.47 208Z" fill="black"/>
<path d="M263.16 207.26L228.06 208.03C226.887 191.61 226.533 175.17 227 158.71L262.1 157.94C261.72 175.5 262 192.14 263.16 207.26Z" fill="white"/>
<path d="M277 401.01L269.25 398.93L272.01 380.43L279.76 382.51L277 401.01Z" fill="#FF8B7B"/>
<path d="M348.69 408.04H340.66L334.41 389.45H342.44L348.69 408.04Z" fill="#FF8B7B"/>
<path d="M339.59 407.11H349.38C349.539 407.111 349.693 407.166 349.817 407.266C349.94 407.366 350.026 407.505 350.06 407.66L351.65 414.8C351.686 414.974 351.683 415.153 351.64 415.326C351.597 415.498 351.516 415.658 351.402 415.794C351.289 415.931 351.146 416.04 350.985 416.114C350.823 416.187 350.647 416.224 350.47 416.22C347.32 416.17 345.03 415.98 341.06 415.98C338.62 415.98 331.26 416.24 327.9 416.24C324.54 416.24 324.09 412.91 325.47 412.6C331.65 411.25 336.31 409.39 338.29 407.6C338.651 407.287 339.112 407.113 339.59 407.11Z" fill="#263238"/>
<path d="M269.55 398.05L278.01 400.32C278.164 400.363 278.299 400.456 278.393 400.585C278.488 400.714 278.536 400.87 278.53 401.03L278.21 408.33C278.205 408.507 278.159 408.68 278.077 408.836C277.994 408.993 277.877 409.128 277.734 409.232C277.592 409.336 277.427 409.407 277.253 409.437C277.079 409.468 276.9 409.459 276.73 409.41C273.73 408.54 269.32 407.17 265.48 406.14C260.99 404.94 257.05 404.14 251.79 402.73C248.61 401.88 248.59 398.42 250 398.49C256.42 398.79 261.41 399.98 267.52 398.15C268.174 397.927 268.877 397.893 269.55 398.05Z" fill="#263238"/>
<path d="M311.05 168.69C308.4 172.02 305.65 175.6 303.05 179.11C300.45 182.62 297.95 186.25 295.65 189.89C294.5 191.7 293.45 193.54 292.44 195.37L289.68 200.8L289.45 201.29C289.45 201.34 289.39 201.38 289.38 201.37C289.367 201.25 289.367 201.13 289.38 201.01C289.379 200.701 289.345 200.392 289.28 200.09C289.245 199.924 289.198 199.76 289.14 199.6C289.14 199.5 289.07 199.4 289.03 199.3C288.98 199.159 288.92 199.022 288.85 198.89C288.671 198.554 288.457 198.239 288.21 197.95C287.862 197.555 287.454 197.218 287 196.95C286.54 196.684 286.041 196.495 285.52 196.39C285.131 196.318 284.735 196.291 284.34 196.31C283.891 196.331 283.448 196.426 283.03 196.59C282.737 196.691 282.46 196.836 282.21 197.02C281.96 197.21 281.97 197.24 281.96 197.26C281.95 197.28 282.02 197.26 282.08 197.26C282.435 197.018 282.77 196.747 283.08 196.45C283.46 196.12 283.84 195.76 284.22 195.38C285.77 193.89 287.37 192.25 289.04 190.72L294.09 194C293.28 196.249 292.304 198.435 291.17 200.54C290.553 201.74 289.823 202.878 288.99 203.94C288.836 204.132 288.673 204.315 288.5 204.49C288.223 204.78 287.919 205.041 287.59 205.27C287.217 205.529 286.814 205.74 286.39 205.9C285.902 206.081 285.39 206.189 284.87 206.22C284.441 206.24 284.012 206.21 283.59 206.13C283.033 206.021 282.499 205.818 282.01 205.53C281.526 205.248 281.091 204.89 280.72 204.47C280.452 204.163 280.217 203.827 280.02 203.47C279.95 203.32 279.87 203.16 279.81 203.01L279.68 202.66C279.6 202.4 279.56 202.24 279.52 202.06C279.43 201.619 279.39 201.17 279.4 200.72C279.406 200.318 279.439 199.917 279.5 199.52C279.5 199.23 279.58 199 279.62 198.78C279.71 198.34 279.79 197.98 279.87 197.63C280.2 196.26 280.55 195.11 280.95 193.95C281.35 192.79 281.87 191.63 282.38 190.52C283.38 188.28 284.48 186.12 285.64 184.04C287.942 179.911 290.459 175.905 293.18 172.04C294.52 170.13 295.9 168.24 297.32 166.39C298.74 164.54 300.18 162.75 301.77 160.89L311.05 168.69Z" fill="#FF8B7B"/>
<path d="M315.41 162.8C317.13 170.27 300.72 189.4 300.72 189.4L286 178.62C289.268 172.422 293.19 166.592 297.7 161.23C304.44 153.61 313.52 154.59 315.41 162.8Z" fill="#FFC727"/>
<path opacity="0.2" d="M315.41 162.8C317.13 170.27 300.72 189.4 300.72 189.4L286 178.62C289.268 172.422 293.19 166.592 297.7 161.23C304.44 153.61 313.52 154.59 315.41 162.8Z" fill="black"/>
<path opacity="0.2" d="M272.01 380.43L270.58 389.97L278.34 392.05L279.76 382.51L272.01 380.43Z" fill="black"/>
<path opacity="0.2" d="M342.44 389.46H334.41L337.64 399.04H345.67L342.44 389.46Z" fill="black"/>
<path d="M351.32 161.68C340.87 191.6 340.68 224 339.51 230.5C333.27 229.67 309.77 226.5 296.96 224.77C294.08 178.83 306.7 156.07 306.7 156.07C306.7 156.07 309.48 155.7 313.24 155.54C314.42 155.54 315.69 155.46 317.01 155.47C317.74 155.47 318.48 155.47 319.23 155.52C325.303 156 331.343 156.828 337.32 158C338.45 158.21 339.6 158.45 340.71 158.7C341.82 158.95 342.71 159.19 343.71 159.44C348 160.53 351.32 161.68 351.32 161.68Z" fill="#FFC727"/>
<path opacity="0.2" d="M351.32 161.68C340.87 191.6 340.68 224 339.51 230.5C333.27 229.67 309.77 226.5 296.96 224.77C294.08 178.83 306.7 156.07 306.7 156.07C306.7 156.07 309.48 155.7 313.24 155.54C314.42 155.54 315.69 155.46 317.01 155.47C317.74 155.47 318.48 155.47 319.23 155.52C325.303 156 331.343 156.828 337.32 158C338.45 158.21 339.6 158.45 340.71 158.7C341.82 158.95 342.71 159.19 343.71 159.44C348 160.53 351.32 161.68 351.32 161.68Z" fill="black"/>
<path opacity="0.2" d="M341.54 175.46C339.85 179.97 341.17 192.46 343.02 196.72C343.68 192.26 344.49 187.58 345.51 182.78L341.54 175.46Z" fill="black"/>
<path d="M289.12 190.14L295.48 184.14L299.62 193.52C298.474 194.694 296.984 195.472 295.365 195.742C293.747 196.012 292.085 195.759 290.62 195.02L289.12 190.14Z" fill="#FF8B7B"/>
<path d="M300.15 181.02L303.33 189.32L299.62 193.47L295.48 184.09L300.15 181.02Z" fill="#FF8B7B"/>
<path d="M338.27 137.35C336.34 143.02 333.77 153.53 337.32 157.96C333.73 160.68 329.1 163.75 322.16 163.06C315.22 162.37 317.07 157.78 319.23 155.52C325.93 154.85 326.41 150.01 325.89 145.33L338.27 137.35Z" fill="#FF8B7B"/>
<path d="M318 154C318 152.42 324.5 151.09 324.75 152.59C325 154.09 322.75 154.59 323.46 156.59C324.17 158.59 330.72 158.79 333.34 155.96C335.08 154.07 335.63 152.17 337.84 153.42C340.05 154.67 342.71 156.42 341.25 159.17C339.79 161.92 331.55 168.42 324.05 166.75C316.55 165.08 314.46 161.05 315.92 159.3C317.19 157.818 317.923 155.95 318 154Z" fill="#FFC727"/>
<path opacity="0.2" d="M333.22 140.61L325.89 145.33C326.032 146.417 326.076 147.515 326.02 148.61C327.488 148.549 328.918 148.127 330.182 147.38C331.447 146.634 332.508 145.586 333.27 144.33C334.11 142.72 333.83 140.89 333.22 140.61Z" fill="black"/>
<path d="M339.48 127.35C338.77 135.29 338.75 139.97 334.62 143.94C328.41 149.94 318.7 145.94 317.03 138C315.53 130.81 316.95 119 324.81 116.1C326.542 115.44 328.413 115.235 330.247 115.503C332.08 115.771 333.814 116.503 335.285 117.631C336.755 118.758 337.912 120.243 338.647 121.945C339.381 123.646 339.668 125.507 339.48 127.35Z" fill="#FF8B7B"/>
<path d="M340.09 121C334.25 120.56 333.76 130.7 338.59 135.06C344.43 132.77 352.59 121.89 340.09 121Z" fill="#263238"/>
<path d="M334.31 122.58C330.89 117.18 324.31 125.74 321.06 119.84C319.11 116.29 315.78 120.14 313.75 118.01C311.72 115.88 314.86 110.16 316.98 109.65C315.79 110.94 315.56 115.55 319.13 113.27C322.7 110.99 325.26 108.63 329.63 112.46C334 116.29 338.57 108.59 342.58 114.46C346.1 119.56 338.36 129 334.31 122.58Z" fill="#263238"/>
<path d="M340.92 121.74C339.982 121.737 339.051 121.585 338.16 121.29C338.113 121.276 338.07 121.252 338.033 121.221C337.995 121.19 337.964 121.151 337.941 121.108C337.918 121.065 337.904 121.018 337.9 120.969C337.895 120.921 337.901 120.872 337.915 120.825C337.929 120.778 337.953 120.735 337.984 120.698C338.015 120.66 338.054 120.629 338.097 120.606C338.14 120.583 338.187 120.569 338.236 120.565C338.284 120.56 338.333 120.566 338.38 120.58C340.94 121.39 343.43 120.96 344.57 119.52C345.46 118.4 345.39 116.86 344.4 115.19C344.35 115.105 344.335 115.004 344.359 114.908C344.384 114.812 344.445 114.73 344.53 114.68C344.615 114.63 344.716 114.615 344.812 114.639C344.908 114.664 344.99 114.725 345.04 114.81C346.19 116.73 346.23 118.62 345.16 119.98C344.632 120.574 343.976 121.041 343.242 121.346C342.507 121.651 341.714 121.785 340.92 121.74Z" fill="#263238"/>
<path d="M342.82 136.22C341.702 137.881 339.973 139.035 338.01 139.43C335.4 139.92 334.32 137.54 335.23 135.19C336.05 133.08 338.4 130.28 340.93 130.84C343.46 131.4 344.17 134.16 342.82 136.22Z" fill="#FF8B7B"/>
<path d="M267.72 387.12L280.84 390.64C280.84 390.64 293.33 344.38 297.28 319.64C298.48 312.13 301.16 301.73 304.4 290.64C308.48 276.64 313.45 261.56 317.48 249.75C321.74 237.31 324.93 228.52 324.93 228.52L296.93 224.75C296.93 224.75 275.62 290.08 273.22 314.46C270.75 339.83 267.72 387.12 267.72 387.12Z" fill="#263238"/>
<path opacity="0.2" d="M304.4 290.66C308.48 276.66 313.45 261.58 317.48 249.77L315 243.3C307.47 251.14 303.94 276.65 304.4 290.66Z" fill="black"/>
<path d="M312.05 226.81C312.05 226.81 310.67 295.58 312.55 319.02C314.62 344.7 333.86 397.18 333.86 397.18H348.56C348.56 397.18 338.75 349.18 335.75 324.18C332.32 295.78 339.51 230.48 339.51 230.48L312.05 226.81Z" fill="#263238"/>
<path d="M332.1 397.5H349.41V392.33L330.06 391.99L332.1 397.5Z" fill="#FFC727"/>
<path d="M265.99 386.98L281.63 391.18L282.99 386.13L266.45 381.42L265.99 386.98Z" fill="#FFC727"/>
<path d="M327.36 129.24C327.36 129.88 326.99 130.4 326.56 130.39C326.13 130.38 325.81 129.84 325.83 129.19C325.85 128.54 326.21 128.03 326.63 128.04C327.05 128.05 327.38 128.59 327.36 129.24Z" fill="#263238"/>
<path d="M320.05 129C320.05 129.65 319.67 130.16 319.25 130.15C318.83 130.14 318.5 129.6 318.51 128.96C318.52 128.32 318.89 127.79 319.31 127.81C319.73 127.83 320.06 128.38 320.05 129Z" fill="#263238"/>
<path d="M322.36 129.42C321.536 131.376 320.442 133.207 319.11 134.86C319.543 135.191 320.043 135.423 320.575 135.538C321.108 135.654 321.659 135.651 322.19 135.53L322.36 129.42Z" fill="#FF5652"/>
<path d="M324.87 137.34C325.593 137.279 326.295 137.069 326.933 136.725C327.571 136.381 328.132 135.91 328.58 135.34C328.613 135.305 328.632 135.258 328.632 135.21C328.632 135.162 328.613 135.115 328.58 135.08C328.559 135.065 328.536 135.054 328.511 135.049C328.486 135.043 328.46 135.043 328.434 135.047C328.409 135.052 328.385 135.062 328.364 135.076C328.342 135.09 328.324 135.109 328.31 135.13C327.793 135.763 327.132 136.263 326.382 136.589C325.632 136.914 324.816 137.055 324 137C323.974 136.999 323.949 137.003 323.924 137.011C323.9 137.02 323.878 137.034 323.859 137.052C323.84 137.07 323.826 137.091 323.815 137.115C323.805 137.139 323.8 137.164 323.8 137.19C323.8 137.239 323.819 137.286 323.852 137.321C323.886 137.356 323.931 137.377 323.98 137.38C324.277 137.389 324.575 137.376 324.87 137.34Z" fill="#263238"/>
<path d="M329.68 126.94C329.745 126.933 329.808 126.909 329.86 126.87C329.901 126.841 329.935 126.804 329.962 126.762C329.989 126.72 330.007 126.673 330.015 126.624C330.023 126.574 330.022 126.524 330.011 126.475C330 126.427 329.979 126.381 329.95 126.34C329.611 125.84 329.157 125.429 328.626 125.14C328.096 124.851 327.504 124.694 326.9 124.68C326.85 124.683 326.801 124.695 326.756 124.716C326.711 124.738 326.67 124.768 326.637 124.805C326.604 124.842 326.578 124.886 326.561 124.933C326.545 124.98 326.537 125.03 326.54 125.08C326.541 125.129 326.552 125.178 326.573 125.223C326.593 125.268 326.623 125.309 326.659 125.342C326.695 125.376 326.738 125.402 326.785 125.419C326.831 125.435 326.881 125.443 326.93 125.44C327.408 125.456 327.875 125.586 328.293 125.819C328.71 126.052 329.066 126.382 329.33 126.78C329.37 126.835 329.423 126.878 329.484 126.906C329.545 126.934 329.613 126.946 329.68 126.94Z" fill="#263238"/>
<path d="M317 126.42C317.061 126.414 317.12 126.393 317.171 126.358C317.222 126.323 317.263 126.275 317.29 126.22C317.497 125.788 317.805 125.411 318.188 125.122C318.571 124.834 319.017 124.641 319.49 124.56C319.58 124.539 319.66 124.486 319.714 124.41C319.767 124.334 319.791 124.242 319.782 124.15C319.772 124.057 319.729 123.972 319.66 123.909C319.592 123.847 319.503 123.812 319.41 123.81C318.813 123.903 318.248 124.138 317.762 124.497C317.276 124.856 316.884 125.327 316.62 125.87C316.596 125.914 316.581 125.962 316.576 126.012C316.571 126.061 316.576 126.112 316.591 126.159C316.606 126.207 316.631 126.251 316.663 126.289C316.695 126.327 316.735 126.358 316.78 126.38C316.847 126.418 316.924 126.432 317 126.42Z" fill="#263238"/>
<path d="M336.94 408.52C337.649 408.5 338.353 408.403 339.04 408.23C339.077 408.22 339.11 408.2 339.135 408.171C339.159 408.143 339.175 408.108 339.18 408.07C339.185 408.034 339.181 407.997 339.166 407.964C339.152 407.93 339.129 407.901 339.1 407.88C338.8 407.7 336.21 406.11 335.33 406.56C335.232 406.612 335.149 406.69 335.091 406.785C335.033 406.88 335.001 406.989 335 407.1C334.981 407.286 335.006 407.473 335.074 407.647C335.141 407.821 335.25 407.977 335.39 408.1C335.846 408.407 336.391 408.555 336.94 408.52ZM338.49 407.96C337.12 408.23 336.08 408.18 335.64 407.81C335.542 407.729 335.466 407.623 335.421 407.504C335.375 407.385 335.361 407.256 335.38 407.13C335.377 407.084 335.387 407.039 335.408 406.998C335.429 406.958 335.461 406.924 335.5 406.9C336 406.66 337.44 407.35 338.49 408V407.96Z" fill="#FFC727"/>
<path d="M339 408.23C339.036 408.24 339.074 408.24 339.11 408.23C339.139 408.213 339.161 408.187 339.176 408.157C339.19 408.127 339.195 408.093 339.19 408.06C339.19 407.96 338.99 405.64 338.06 404.88C337.951 404.783 337.822 404.712 337.682 404.67C337.542 404.629 337.394 404.618 337.25 404.64C337.109 404.64 336.972 404.688 336.862 404.778C336.753 404.867 336.678 404.991 336.65 405.13C336.48 406.03 338.08 407.79 338.91 408.24L339 408.23ZM337.37 405C337.533 404.999 337.69 405.059 337.81 405.17C338.375 405.89 338.707 406.766 338.76 407.68C337.93 407.05 336.91 405.68 337.01 405.2C337.01 405.15 337.01 405.03 337.29 405H337.37Z" fill="#FFC727"/>
<path d="M268.5 398.92C268.535 398.916 268.568 398.902 268.596 398.881C268.624 398.86 268.646 398.832 268.66 398.8C268.674 398.764 268.677 398.725 268.668 398.687C268.659 398.65 268.639 398.616 268.61 398.59C268.31 398.31 265.61 395.89 264.53 396.16C264.429 396.186 264.337 396.237 264.262 396.309C264.186 396.381 264.131 396.471 264.1 396.57C264.034 396.732 264.009 396.908 264.027 397.082C264.044 397.257 264.104 397.424 264.2 397.57C264.85 398.57 267.15 398.84 268.47 398.93L268.5 398.92ZM264.7 396.52C265.34 396.52 266.85 397.57 267.93 398.52C266.14 398.34 264.88 397.93 264.52 397.38C264.456 397.285 264.417 397.176 264.407 397.063C264.396 396.949 264.415 396.835 264.46 396.73C264.468 396.69 264.487 396.652 264.516 396.622C264.544 396.592 264.58 396.57 264.62 396.56L264.7 396.52Z" fill="#FFC727"/>
<path d="M268.5 398.92H268.55C268.58 398.909 268.607 398.89 268.628 398.866C268.649 398.841 268.664 398.812 268.67 398.78C268.67 398.69 269.04 396.54 268.27 395.47C268.162 395.312 268.023 395.179 267.862 395.077C267.7 394.976 267.519 394.909 267.33 394.88C266.81 394.8 266.6 395.01 266.51 395.21C266.13 396.05 267.51 398.21 268.36 398.89C268.403 398.914 268.451 398.925 268.5 398.92ZM267.07 395.22H267.27C267.41 395.241 267.543 395.29 267.662 395.366C267.781 395.442 267.883 395.542 267.96 395.66C268.353 396.488 268.485 397.415 268.34 398.32C267.54 397.49 266.63 395.84 266.86 395.32C266.87 395.31 266.91 395.23 267.07 395.22Z" fill="#FFC727"/>
<path d="M353.41 167.88C354.57 173.09 355.55 178.27 356.41 183.51C357.27 188.75 358.04 194 358.64 199.32L358.85 201.32L358.97 202.56C359.062 203.531 358.974 204.511 358.71 205.45C358.354 206.756 357.636 207.934 356.64 208.85C355.807 209.598 354.816 210.149 353.74 210.46C352.489 210.813 351.181 210.918 349.89 210.77C348.213 210.586 346.562 210.21 344.97 209.65C343.54 209.16 342.22 208.65 340.97 208.04C338.461 206.894 336.014 205.615 333.64 204.21C331.29 202.82 329.04 201.39 326.8 199.76L329.65 194.45C334.5 196.13 339.44 197.93 344.18 199.23C345.36 199.56 346.53 199.84 347.64 200.04C348.568 200.252 349.518 200.353 350.47 200.34C350.76 200.34 350.99 200.21 350.53 200.29C350.082 200.406 349.671 200.637 349.34 200.96C348.821 201.42 348.44 202.016 348.24 202.68C348.156 202.983 348.105 203.295 348.09 203.61C348.09 203.78 348.09 203.51 348.04 203.37L347.95 202.89L347.59 200.99C346.61 195.91 345.61 190.813 344.59 185.7C343.59 180.59 342.53 175.45 341.59 170.36L353.41 167.88Z" fill="#FF8B7B"/>
<path d="M354 163.65C359.24 169.26 359.71 186.49 359.71 186.49L344.54 193.64C344.54 193.64 339.62 182.69 339.46 172.78C339.3 161.54 348.75 158 354 163.65Z" fill="#FFC727"/>
<path opacity="0.2" d="M354 163.65C359.24 169.26 359.71 186.49 359.71 186.49L344.54 193.64C344.54 193.64 339.62 182.69 339.46 172.78C339.3 161.54 348.75 158 354 163.65Z" fill="black"/>
<path d="M299.62 184.59C299.533 184.589 299.448 184.569 299.37 184.53C299.256 184.461 299.173 184.351 299.139 184.222C299.106 184.093 299.124 183.956 299.19 183.84L307.19 170.03C307.263 169.93 307.37 169.86 307.491 169.835C307.612 169.809 307.739 169.83 307.846 169.892C307.953 169.954 308.033 170.054 308.071 170.172C308.108 170.29 308.101 170.417 308.05 170.53L300.1 184.34C300.052 184.423 299.981 184.49 299.896 184.534C299.811 184.578 299.715 184.598 299.62 184.59Z" fill="#263238"/>
<path d="M324.44 223L294.21 218.6C293.59 218.506 293.018 218.208 292.586 217.754C292.153 217.299 291.884 216.714 291.82 216.09L289.82 174.36C289.805 174.082 289.855 173.804 289.966 173.548C290.077 173.293 290.246 173.066 290.459 172.887C290.672 172.707 290.924 172.58 291.195 172.515C291.466 172.449 291.748 172.448 292.02 172.51L322.25 176.9C322.871 176.999 323.442 177.299 323.876 177.755C324.309 178.21 324.581 178.795 324.65 179.42L326.6 221.15C326.613 221.424 326.564 221.698 326.455 221.95C326.346 222.202 326.181 222.425 325.973 222.604C325.765 222.782 325.518 222.911 325.252 222.98C324.987 223.048 324.709 223.055 324.44 223Z" fill="white"/>
<path d="M323.76 223.42L293.53 219C292.909 218.906 292.336 218.609 291.902 218.155C291.467 217.7 291.196 217.115 291.13 216.49L289.18 174.76C289.164 174.482 289.212 174.204 289.322 173.949C289.431 173.693 289.599 173.466 289.812 173.287C290.024 173.107 290.276 172.979 290.546 172.914C290.817 172.849 291.099 172.847 291.37 172.91L321.6 177.3C322.223 177.394 322.797 177.693 323.231 178.149C323.666 178.606 323.936 179.193 324 179.82L326 221.54C326.024 221.826 325.979 222.113 325.869 222.377C325.759 222.642 325.586 222.876 325.367 223.06C325.148 223.244 324.887 223.373 324.607 223.436C324.328 223.498 324.037 223.493 323.76 223.42Z" fill="#263238"/>
<path d="M330.23 194.6L323.12 190.6L322.29 200.82C322.29 200.82 329.09 202.88 330.58 199.39L330.23 194.6Z" fill="#FF8B7B"/>
<path d="M315.2 192.43L316.2 200.07L322.29 200.83L323.12 190.61L315.2 192.43Z" fill="#FF8B7B"/>
</g>
<defs>
<filter id="filter0_d_66_399" x="-20" y="-20" width="540" height="540" filterUnits="userSpaceOnUse" color-interpolation-filters="sRGB">
<feFlood flood-opacity="0" result="BackgroundImageFix"/>
<feColorMatrix in="SourceAlpha" type="matrix" values="0 0 0 0 0 0 0 0 0 0 0 0 0 0 0 0 0 0 127 0" result="hardAlpha"/>
<feOffset/>
<feGaussianBlur stdDeviation="10"/>
<feColorMatrix type="matrix" values="0 0 0 0 1 0 0 0 0 0.780392 0 0 0 0 0.152941 0 0 0 1 0"/>
<feBlend mode="normal" in2="BackgroundImageFix" result="effect1_dropShadow_66_399"/>
<feBlend mode="normal" in="SourceGraphic" in2="effect1_dropShadow_66_399" result="shape"/>
</filter>
</defs>
</svg>
