<svg width="560" height="561" viewBox="0 0 560 561" fill="none" xmlns="http://www.w3.org/2000/svg">
<g id="MockTradeLogo">
<g id="rootCircle" filter="url(#filter0_d_89_238)">
<path d="M167.732 35.2094C172.569 33.3307 177.001 31.4438 181.573 30.0042C195.623 25.5804 209.53 20.4394 223.867 17.2702C236.992 14.3688 250.583 13.4562 264.011 12.0827C271.715 11.2947 279.561 10.5798 287.241 11.1663C300.871 12.2069 314.441 14.1261 328.003 15.9284C345.647 18.2732 362.533 23.6182 379.014 30.0825C398.531 37.7376 416.76 47.8178 433.96 59.9274C449.199 70.6565 463.2 82.6875 475.988 96.17C490.008 110.95 502.116 127.168 512.359 144.802C522.944 163.025 531.918 181.976 537.279 202.38C540.875 216.07 544.204 229.935 546.122 243.932C548.145 258.704 549.361 273.746 549.055 288.631C548.768 302.565 546.803 316.599 544.154 330.314C541.328 344.941 537.847 359.609 532.84 373.61C524.588 396.687 513.216 418.383 498.603 438.179C485.32 456.174 470.489 472.668 453.121 487.02C437.326 500.071 420.506 511.454 402.459 520.848C381.494 531.762 359.134 538.988 335.98 544.184C311.998 549.566 287.819 550.78 263.5 549.856C244.506 549.134 225.829 545.512 207.458 540.562C180.231 533.226 155.044 521.38 131.458 506.022C111.538 493.051 93.8388 477.408 77.9068 459.894C65.379 446.123 54.7015 430.858 45.5317 414.597C35.8025 397.344 27.4153 379.459 22.2097 360.328C18.6638 347.296 16.0743 333.991 13.3906 320.741C9.4614 301.341 9.60377 281.607 10.5792 262.034C11.5134 243.29 15.058 224.801 20.2557 206.646C25.4919 188.356 32.0809 170.577 41.5178 154.145C49.5169 140.217 58.6298 126.845 68.2052 113.935C75.3124 104.353 83.3637 95.2858 92.0313 87.0854C109.02 71.012 127.292 56.4692 148.204 45.6013C154.63 42.2617 160.997 38.8074 167.732 35.2094ZM124.879 75.9818C118.507 81.3505 111.842 86.4137 105.838 92.1663C98.5534 99.1455 91.6626 106.559 84.8934 114.048C71.934 128.386 61.3308 144.383 52.2764 161.435C42.1306 180.542 34.3812 200.613 29.5951 221.664C26.7264 234.281 24.3291 247.187 23.6225 260.067C22.7902 275.237 23.32 290.576 24.5603 305.735C25.6272 318.776 27.184 332.069 30.9279 344.528C36.3526 362.581 42.8266 380.512 50.8961 397.526C60.7541 418.31 74.303 437.032 89.9419 454.008C103.864 469.12 119.333 482.584 136.463 493.959C158.634 508.68 182.448 519.868 208.07 527.476C231.225 534.352 254.895 536.768 278.802 537.921C283.362 538.141 287.982 537.443 292.556 536.979C305.225 535.695 318.142 535.469 330.494 532.724C356.745 526.891 381.984 518.02 405.53 504.532C421.2 495.556 435.878 485.276 449.271 473.33C458.666 464.95 467.111 455.462 475.609 446.13C488.849 431.591 499.454 415.173 508.333 397.681C515.881 382.81 522.127 367.395 526.697 351.303C531.9 332.983 535.257 314.307 536.19 295.358C537.146 275.959 535.719 256.633 532.509 237.362C528.536 213.519 521.088 190.892 510.875 169.152C500.36 146.767 486.261 126.593 469.854 108.209C456.077 92.771 440.532 79.0091 422.887 68.0989C409.388 59.7521 395.439 51.9759 381.096 45.203C370.294 40.1025 358.716 36.4191 347.19 33.1375C331.103 28.5577 314.597 26.2067 297.856 24.7697C280.131 23.2481 262.55 23.7815 245.118 26.2904C231.944 28.1863 218.985 31.7674 206.046 35.0533C186.751 39.9533 168.898 48.4769 151.713 58.2962C142.634 63.4839 134.144 69.7016 124.879 75.9818Z" fill="#2EB67D"/>
</g>
<g id="firstCandle" filter="url(#filter1_d_89_238)">
<path d="M212.349 349C212.349 361.164 212.056 372.837 212.413 384.49C213.062 405.677 209.284 413.763 185.158 412.017C183.37 411.888 181.565 412 179.349 412C179.349 421.476 179.451 430.593 179.315 439.706C179.219 446.066 175.734 450.475 170.53 450.067C165.44 449.668 162.401 446.934 162.367 441.71C162.305 432.049 162.35 422.386 162.35 412C157.548 412 152.797 412 148.045 412C135.007 412 129.35 406.283 129.35 393.107C129.35 346.618 129.518 300.128 129.244 253.64C129.165 240.154 136.739 235.743 147.94 235.048C152.558 234.762 157.208 235.001 162.35 235.001C162.35 226.442 162.347 218.17 162.35 209.898C162.352 204.388 166.12 200.092 170.899 200.139C175.459 200.185 179.212 204.223 179.31 209.662C179.459 217.954 179.349 226.25 179.349 234.482C186.044 235.003 192.435 235.193 198.73 236.068C207.24 237.251 212.332 243.442 212.339 252.023C212.365 284.182 212.349 316.341 212.349 349ZM146.35 355.5C146.35 368.595 146.35 381.689 146.35 394.705C162.668 394.705 178.403 394.705 194.06 394.705C194.06 347.348 194.06 300.285 194.06 253.295C178.032 253.295 162.297 253.295 146.35 253.295C146.35 287.226 146.35 320.863 146.35 355.5Z" fill="#E01E5B"/>
</g>
<g id="thirdCandle" filter="url(#filter2_d_89_238)">
<path d="M360.962 250.137C368.539 249.512 375.723 249.007 383.35 248.471C383.35 246.852 383.35 245.068 383.35 243.283C383.35 202.964 383.251 162.645 383.527 122.328C383.55 118.875 385.094 114.227 387.602 112.227C394.619 106.628 399.892 111.495 401.311 118.895C401.558 120.18 401.349 121.554 401.349 122.886C401.349 164.363 401.349 205.84 401.349 248.001C406.039 248.001 410.635 247.804 415.207 248.052C420.578 248.344 426.36 248.809 429.454 253.842C431.793 257.647 434.07 262.27 434.137 266.564C434.557 293.548 434.494 320.543 434.272 347.531C434.193 357.082 428.102 366.178 416.616 365.079C411.704 364.609 406.711 365 401.349 365C401.349 370.833 401.575 376.299 401.274 381.735C401.052 385.736 400.264 389.448 396.036 391.879C390.999 394.773 384.96 390.487 384.453 386.384C383.608 379.543 383.378 372.626 382.836 365C377.538 365 371.787 365.006 366.036 364.999C357.898 364.988 351.438 359.183 351.402 351.178C351.27 321.689 351.238 292.198 351.444 262.71C351.486 256.795 355.876 253.208 360.962 250.137ZM374.928 348C388.682 348 402.435 348 416.032 348C416.032 320.298 416.032 293.232 416.032 266.322C399.976 266.322 384.241 266.322 368.672 266.322C368.672 293.71 368.672 320.775 368.672 348C370.647 348 372.299 348 374.928 348Z" fill="#ECB22E"/>
</g>
<g id="secondCandle" filter="url(#filter3_d_89_238)">
<path d="M322.35 211.001C322.35 235.147 322.356 258.793 322.346 282.44C322.343 290.878 315.258 297.979 306.846 297.998C301.539 298.01 296.233 298 290.797 298C290.388 302.568 290.388 307.003 289.512 311.258C288.306 317.112 284.457 320.491 280.581 319.982C275.73 319.346 272.558 315.2 272.369 309.052C272.262 305.575 272.35 302.092 272.35 298C267.585 298 262.982 297.793 258.403 298.04C245.677 298.724 239.555 290.719 239.44 279.752C239.164 253.278 239.246 226.798 239.399 200.321C239.466 188.791 247.136 181.788 258.207 181.987C262.694 182.068 267.182 182 272.35 182C272.35 178.308 272.35 174.724 272.35 171.14C272.35 161.814 272.383 152.489 272.336 143.164C272.311 138.398 274.433 134.869 278.803 133.302C282.301 132.048 286.023 133.036 287.932 136.292C289.395 138.788 290.185 142.016 290.245 144.939C290.492 157.076 290.349 169.22 290.349 182C295.59 182 300.681 182.133 305.764 181.97C314.033 181.704 323.75 187.985 322.429 198.521C321.936 202.456 322.35 206.504 322.35 211.001ZM270.858 199C266.424 199 261.99 199 257.637 199C257.637 226.644 257.637 253.708 257.637 280.71C273.66 280.71 289.394 280.71 305.061 280.71C305.061 253.355 305.061 226.291 305.061 199C293.801 199 282.828 199 270.858 199Z" fill="#36C5F0"/>
</g>
</g>
<defs>
<filter id="filter0_d_89_238" x="0" y="0.951111" width="559.102" height="559.186" filterUnits="userSpaceOnUse" color-interpolation-filters="sRGB">
<feFlood flood-opacity="0" result="BackgroundImageFix"/>
<feColorMatrix in="SourceAlpha" type="matrix" values="0 0 0 0 0 0 0 0 0 0 0 0 0 0 0 0 0 0 127 0" result="hardAlpha"/>
<feOffset/>
<feGaussianBlur stdDeviation="5"/>
<feComposite in2="hardAlpha" operator="out"/>
<feColorMatrix type="matrix" values="0 0 0 0 0.180392 0 0 0 0 0.713726 0 0 0 0 0.490196 0 0 0 1 0"/>
<feBlend mode="normal" in2="BackgroundImageFix" result="effect1_dropShadow_89_238"/>
<feBlend mode="normal" in="SourceGraphic" in2="effect1_dropShadow_89_238" result="shape"/>
</filter>
<filter id="filter1_d_89_238" x="119.244" y="190.139" width="103.236" height="269.954" filterUnits="userSpaceOnUse" color-interpolation-filters="sRGB">
<feFlood flood-opacity="0" result="BackgroundImageFix"/>
<feColorMatrix in="SourceAlpha" type="matrix" values="0 0 0 0 0 0 0 0 0 0 0 0 0 0 0 0 0 0 127 0" result="hardAlpha"/>
<feOffset/>
<feGaussianBlur stdDeviation="5"/>
<feComposite in2="hardAlpha" operator="out"/>
<feColorMatrix type="matrix" values="0 0 0 0 0.878431 0 0 0 0 0.117647 0 0 0 0 0.356863 0 0 0 1 0"/>
<feBlend mode="normal" in2="BackgroundImageFix" result="effect1_dropShadow_89_238"/>
<feBlend mode="normal" in="SourceGraphic" in2="effect1_dropShadow_89_238" result="shape"/>
</filter>
<filter id="filter2_d_89_238" x="341.296" y="99.7996" width="103.15" height="303.026" filterUnits="userSpaceOnUse" color-interpolation-filters="sRGB">
<feFlood flood-opacity="0" result="BackgroundImageFix"/>
<feColorMatrix in="SourceAlpha" type="matrix" values="0 0 0 0 0 0 0 0 0 0 0 0 0 0 0 0 0 0 127 0" result="hardAlpha"/>
<feOffset/>
<feGaussianBlur stdDeviation="5"/>
<feComposite in2="hardAlpha" operator="out"/>
<feColorMatrix type="matrix" values="0 0 0 0 0.92549 0 0 0 0 0.698039 0 0 0 0 0.180392 0 0 0 1 0"/>
<feBlend mode="normal" in2="BackgroundImageFix" result="effect1_dropShadow_89_238"/>
<feBlend mode="normal" in="SourceGraphic" in2="effect1_dropShadow_89_238" result="shape"/>
</filter>
<filter id="filter3_d_89_238" x="229.258" y="122.776" width="103.293" height="207.256" filterUnits="userSpaceOnUse" color-interpolation-filters="sRGB">
<feFlood flood-opacity="0" result="BackgroundImageFix"/>
<feColorMatrix in="SourceAlpha" type="matrix" values="0 0 0 0 0 0 0 0 0 0 0 0 0 0 0 0 0 0 127 0" result="hardAlpha"/>
<feOffset/>
<feGaussianBlur stdDeviation="5"/>
<feComposite in2="hardAlpha" operator="out"/>
<feColorMatrix type="matrix" values="0 0 0 0 0.211765 0 0 0 0 0.772549 0 0 0 0 0.941176 0 0 0 1 0"/>
<feBlend mode="normal" in2="BackgroundImageFix" result="effect1_dropShadow_89_238"/>
<feBlend mode="normal" in="SourceGraphic" in2="effect1_dropShadow_89_238" result="shape"/>
</filter>
</defs>
</svg>
